<svg xmlns="http://www.w3.org/2000/svg" style="display: none;">
  
    <symbol id="icon-sky-eicon-alarm" viewBox="0 0 512 512">
      <path d="m257 450c21 0 39-18 39-40l-80 0c0 22 18 40 41 40z m119-119l0-100c0-61-33-112-90-126l0-13c0-16-13-30-30-30-16 0-30 13-30 30l0 13c-57 14-89 65-89 126l0 100-40 39 0 20 318 0 0-20z"/>
    </symbol>
  
    <symbol id="icon-sky-eicon-booking" viewBox="0 0 512 512">
      <path d="m344 257l-20-20-95 94-41-41-20 21 61 61c0 0 115-115 115-115z m48-156l-20 0 0-39-38 0 0 39-155 0 0-39-39 0 0 39-19 0c-22 0-39 17-39 39l0 271c0 21 17 39 38 39l272 0c21 0 38-18 38-39l0-271c1-22-17-39-38-39z m0 310l-271 0 0-213 271 0z"/>
    </symbol>
  
    <symbol id="icon-sky-eicon-buildings" viewBox="0 0 512 512">
      <path d="m256 159l0-77-194 0 0 349 388 0 0-272-194 0z m-116 233l-39 0 0-39 39 0z m0-78l-39 0 0-38 39 0z m0-77l-39 0 0-39 39 0z m0-78l-39 0 0-39 39 0z m77 233l-38 0 0-39 38 0z m0-78l-38 0 0-38 38 0z m0-77l-38 0 0-39 38 0z m0-78l-38 0 0-39 38 0z m194 233l-155 0 0-39 39 0 0-39-39 0 0-38 39 0 0-39-39 0 0-39 155 0z m-39-155l-38 0 0 38 38 0z m0 77l-38 0 0 39 38 0z"/>
    </symbol>
  
    <symbol id="icon-sky-eicon-car" viewBox="0 0 512 512">
      <path d="m367 144c-3-9-12-16-23-16l-176 0c-10 0-19 7-22 16l-34 96 0 128c0 9 8 16 16 16l16 0c9 0 16-7 16-16l0-16 192 0 0 16c0 9 7 16 16 16l16 0c9 0 16-7 16-16l0-128z m-199 160c-13 0-24-11-24-24 0-13 11-24 24-24 14 0 25 11 25 24 0 13-11 24-25 24z m176 0c-13 0-24-11-24-24 0-13 11-24 24-24 14 0 24 11 24 24 0 13-10 24-24 24z m-200-80l24-72 177 0 24 72z"/>
    </symbol>
  
    <symbol id="icon-sky-eicon-doc" viewBox="0 0 512 512">
      <path d="m101 140l-39 0 0 271c0 21 17 39 39 39l271 0 0-39-271 0z m310-78l-233 0c-21 0-38 17-38 39l0 233c0 21 17 38 38 38l233 0c21 0 39-17 39-38l0-233c0-21-18-39-39-39z m-19 175l-194 0 0-39 194 0z m-78 77l-116 0 0-39 116 0z m78-155l-194 0 0-39 194 0z"/>
    </symbol>
  
    <symbol id="icon-sky-eicon-ecar" viewBox="0 0 512 512">
      <path d="m194 238l-33-32-9 9 18 19c-8 3-14 11-14 20 0 12 10 22 22 22 3 0 6-1 9-2l0 63c0 5-4 8-9 8-5 0-9-3-9-8l0-40c0-9-7-17-17-17l-9 0 0-61c0-9-8-17-17-17l-52 0c-10 0-18 8-18 17l0 139 87 0 0-65 13 0 0 44c0 12 10 21 22 21 12 0 22-9 22-21l0-83c0-6-2-12-6-16z m-16 25c-5 0-9-4-9-9 0-5 4-9 9-9 5 0 9 4 9 9 0 5-4 9-9 9z m-87 69l0-39-17 0 35-65 0 43 17 0z m339-166c-3-7-10-12-19-12l-140 0c-9 0-16 5-19 12l-26 77 0 103c0 7 5 12 12 12l13 0c7 0 13-5 13-12l0-13 154 0 0 13c0 7 5 12 12 12l13 0c7 0 13-5 13-12l0-103z m-159 128c-11 0-20-8-20-19 0-10 9-19 20-19 10 0 19 9 19 19 0 11-9 19-19 19z m140 0c-11 0-19-8-19-19 0-10 9-19 19-19 11 0 19 9 19 19 0 11-8 19-19 19z m-160-64l19-57 141 0 20 57z"/>
    </symbol>
  
    <symbol id="icon-sky-eicon-economy" viewBox="0 0 512 512">
      <path d="m252 232c-49-12-64-25-64-45 0-24 21-40 57-40 38 0 52 18 53 45l48 0c-2-37-24-70-69-81l0-47-64 0 0 46c-41 9-75 36-75 77 0 49 41 74 101 88 53 13 64 32 64 52 0 14-11 38-58 38-44 0-61-20-63-45l-47 0c2 47 38 73 79 82l0 46 64 0 0-46c41-8 74-32 74-76 0-60-52-81-100-94z"/>
    </symbol>
  
    <symbol id="icon-sky-eicon-emglights" viewBox="0 0 512 512">
      <path d="m407 62l-302 0c-24 0-43 20-43 43l0 302c0 24 19 43 43 43l302 0c24 0 43-19 43-43l0-302c0-24-19-43-43-43z m-204 116c9 0 17 7 17 17 0 9-8 16-17 16-9 0-17-7-17-16 0-10 8-17 17-17z m13 96l-30-17-5 8 31 18 0 43-15 0 0-30-34-20-5 9-57 0 0-19 43 0 27-47-17 0-12 21-13-8 16-28 35 0 25 14 1 4-12 21 29 17z m66 29l0-31-42 0 0-15 42 0 0-32 39 39z m129 31l-77 0 0-148 77 0z"/>
    </symbol>
  
    <symbol id="icon-sky-eicon-energywatch" viewBox="0 0 512 512">
      <path d="m256 62l-160 71 0 107c0 97 68 188 158 210l2 0 2 0c90-22 158-113 158-210l0-107z m141 178c0 88-60 170-141 191-81-21-142-103-142-191l0-95 142-63 141 63z m-192-86l0 112 31 0 0 92 71-122-41 0 41-82z"/>
    </symbol>
  
    <symbol id="icon-sky-eicon-eos" viewBox="0 0 512 512">
      <path d="m407 62l-302 0c-24 0-43 20-43 43l0 302c0 24 20 43 43 43l302 0c24 0 43-20 43-43l0-302c0-24-19-43-43-43z m-216 302l-43 0 0-151 43 0z m87 0l-44 0 0-216 44 0z m86 0l-43 0 0-86 43 0z"/>
    </symbol>
  
    <symbol id="icon-sky-eicon-realtime" viewBox="0 0 512 512">
      <path d="m435 177c0 16-13 29-28 29-3 0-5-1-8-1l-51 50c1 3 1 5 1 8 0 16-13 29-28 29-16 0-29-13-29-29 0-3 0-5 1-8l-37-36c-2 1-5 1-7 1-3 0-5 0-8-1l-65 65c1 3 1 5 1 8 0 16-13 29-29 29-15 0-28-14-28-29 0-16 13-29 28-29 3 0 6 0 8 1l65-65c0-2-1-5-1-8 0-15 13-28 29-28 16 0 29 13 29 28 0 3 0 6-1 8l37 37c2-1 4-2 7-2 3 0 5 1 7 2l51-52c0-2-1-5-1-7 0-16 13-29 29-29 16 0 28 13 28 29z m-373-115l43 0 0 388-43 0z m0 345l388 0 0 43-388 0z"/>
    </symbol>
  
    <symbol id="icon-sky-eicon-support" viewBox="0 0 512 512">
      <path d="m381 219c0 3 0 6 0 10-1 6-2 12-3 18 0 1 0 2 1 2 8 5 12 14 10 23-1 9-8 16-18 18-12 2-24-7-25-19-2-11 5-21 16-24 1-1 2-1 2-2 0-7 2-14 2-21 1-5 0-10 1-15 0-27 0-54 0-81 0-13-3-25-9-37-9-18-23-32-40-42-13-8-27-13-43-15-9-2-19-2-29-1-21 2-41 8-59 21-18 12-31 28-37 48-3 9-5 17-5 27 0 26 0 54 0 80 0 6-4 9-9 10-5 0-9 0-14-2-6-2-11-6-12-13-1-2-1-4-1-5 0-20 0-40 0-60 0-9 4-15 13-19 1 0 3-1 4-1 2 0 3 0 5-1 0-2 1-4 1-7 3-15 9-29 19-42 14-20 34-34 58-43 10-3 20-6 31-7 10-1 21-1 31 0 24 2 45 10 65 24 19 14 33 32 40 54 2 7 4 13 5 20 0 1 0 1 1 1 7 0 13 3 17 8 3 3 4 7 4 11 0 20 0 41 0 62 0 8-4 13-12 17-3 1-6 2-10 3z m-28-60c0 54-43 97-97 97-53 0-97-43-97-97 0-54 44-97 97-97 54 0 97 43 97 97z m-291 242l0 49 388 0 0-49c0-64-129-97-194-97-65 0-194 33-194 97z"/>
    </symbol>
  
    <symbol id="icon-sky-eicon-user" viewBox="0 0 512 512">
      <path d="m353 159c0 53-43 97-97 97-53 0-97-44-97-97 0-54 44-97 97-97 54 0 97 43 97 97z m-291 242l0 49 388 0 0-49c0-64-129-97-194-97-65 0-194 33-194 97z"/>
    </symbol>
  
    <symbol id="icon-sky-eicon-electricty" viewBox="0 0 512 512">
      <path d="m344 220c-16 0-32 0-48 0-2 0-3 0-5 0 0-3 0-5 0-7 0-47 0-94 0-141 0-3 0-7-4-8-4-1-6 2-8 5-40 71-80 142-120 213-3 7-1 10 7 10 17 0 33 0 49 0 2 0 4 0 6 0 0 3 0 6 0 8 0 46 0 92 0 138 0 2 0 4 0 5 1 2 2 5 4 5 2 1 5-1 7-2 1-1 1-3 2-4 18-32 36-63 53-95 22-38 43-76 65-114 4-10 2-13-8-13z"/>
    </symbol>
  
    <symbol id="icon-sky-eicon-oil" viewBox="0 0 512 512">
      <path d="m377 190c-36-43-76-81-114-122-5-5-9-5-13 0-39 41-79 79-115 122-42 50-49 107-21 166 27 59 76 89 141 92 66-2 115-31 144-91 27-60 20-118-22-167z m-50 187c-14 30-38 44-72 45-32-1-57-16-70-45-14-30-11-59 10-84 18-21 38-40 57-61 3-2 5-2 7 0 19 21 39 40 57 61 21 25 25 54 11 84z"/>
    </symbol>
  
    <symbol id="icon-sky-eicon-sun" viewBox="0 0 512 512">
      <path d="m164 138l-31-32-25 25 31 32z m-48 99l-53 0 0 35 53 0z m157-174l-34 0 0 51 35 0c-1 0-1-51-1-51z m131 68l-25-25-31 32 25 25z m-56 240l31 32 25-25-31-31c-1 0-25 24-25 24z m48-134l0 35 53 0 0-35z m-140-87c-58 0-105 47-105 105 0 58 47 105 105 105 58 0 105-47 105-105 0-58-47-105-105-105z m-17 297l35 0 0-52-35 0z m-131-69l25 25 31-32-25-25z"/>
    </symbol>
  
    <symbol id="icon-sky-eicon-water" viewBox="0 0 512 512">
      <path d="m377 190c-36-43-76-81-114-122-5-5-9-5-13 0-39 41-79 79-115 122-42 50-49 107-21 166 27 59 76 89 141 92 66-2 115-31 144-91 27-60 20-118-22-167z"/>
    </symbol>
  
    <symbol id="icon-home" viewBox="0 0 512 512">
      <path d="m421 283l0 138c0 5-2 9-6 12-3 4-8 6-13 6l-109 0 0-110-74 0 0 110-109 0c-5 0-10-2-13-6-4-3-6-7-6-12l0-138c0 0 0 0 0 0 0-1 0-1 0-1l164-136 165 136c0 0 0 1 0 1z m63-19l-17 21c-2 2-4 3-6 3l-1 0c-3 0-5-1-6-2l-198-165-198 165c-2 2-4 2-7 2-2 0-4-1-6-3l-17-21c-2-2-2-4-2-7 0-3 1-5 3-6l205-171c6-5 14-8 22-8 8 0 16 3 22 8l69 58 0-56c0-2 1-5 3-6 2-2 4-3 7-3l54 0c3 0 5 1 7 3 2 1 3 4 3 6l0 117 62 52c2 1 3 3 3 6 0 3 0 5-2 7z"/>
    </symbol>
  
    <symbol id="icon-pie-chart" viewBox="0 0 512 512">
      <path d="m219 254l156 156c-20 21-43 37-70 48-27 12-56 17-86 17-39 0-76-9-110-29-33-20-60-46-80-80-19-33-29-70-29-110 0-40 10-77 29-110 20-34 47-60 80-80 34-20 71-29 110-29z m54 2l221 0c0 30-6 58-17 85-12 27-28 51-48 71z m202-37l-219 0 0-219c40 0 77 10 110 29 34 20 60 47 80 80 20 34 29 71 29 110z"/>
    </symbol>
  
    <symbol id="icon-bar-chart" viewBox="0 0 512 512">
      <path d="m146 256l0 146-73 0 0-146z m110-146l0 292-73 0 0-292z m293 329l0 36-586 0 0-438 37 0 0 402z m-183-256l0 219-73 0 0-219z m109-110l0 329-73 0 0-329z"/>
    </symbol>
  
    <symbol id="icon-area-chart" viewBox="0 0 512 512">
      <path d="m549 439l0 36-586 0 0-438 37 0 0 402z m-110-293l73 256-475 0 0-164 128-165 164 165z"/>
    </symbol>
  
    <symbol id="icon-leaf" viewBox="0 0 512 512">
      <path d="m366 201c0-5-2-9-6-13-3-3-8-5-13-5-32 0-63 5-90 14-28 9-53 22-75 38-21 16-44 37-67 63-3 4-5 8-5 13 0 5 2 9 5 13 4 3 8 5 13 5 5 0 9-2 13-5 5-5 12-12 21-21 9-9 15-15 19-18 26-24 52-41 77-51 25-10 55-15 89-15 5 0 10-1 13-5 4-4 6-8 6-13z m146-56c0 18-2 36-6 55-8 42-26 79-52 109-27 30-61 56-103 77-40 20-82 31-125 31-28 0-55-5-81-14-3-1-12-5-26-12-13-7-23-10-27-10-3 0-7 3-11 9-5 6-9 12-13 20-4 7-9 14-15 20-6 6-12 9-17 9-6 0-11-1-15-3-4-2-7-5-9-7-2-3-4-7-7-12-1-1-1-2-2-3-1-2-1-3-2-3 0-1 0-2-1-3 0-1 0-2 0-4 0-6 3-13 9-21 6-7 12-13 19-18 7-6 14-11 20-16 6-6 9-11 9-14 0-1-2-5-4-11-3-6-5-11-5-13-2-9-3-19-3-29 0-22 5-43 13-63 8-20 19-38 34-53 14-15 30-28 49-40 18-11 37-20 58-27 10-3 24-6 41-7 17-2 35-2 52-3 17 0 34-1 51-1 17-1 32-4 46-7 14-4 25-9 33-16l8-9 9-8 7-6 11-4 12-1c8 0 14 4 20 13 6 8 11 19 14 32 3 12 5 24 7 35 1 11 2 20 2 28z"/>
    </symbol>
  
    <symbol id="icon-lock" viewBox="0 0 512 512">
      <path d="m183 219l146 0 0-54c0-21-7-38-21-52-15-14-32-22-52-22-20 0-37 8-52 22-14 14-21 31-21 52z m238 28l0 164c0 8-3 15-8 20-6 5-12 8-20 8l-274 0c-8 0-14-3-20-8-5-5-8-12-8-20l0-164c0-8 3-14 8-20 6-5 12-8 20-8l9 0 0-54c0-35 13-66 38-91 25-25 55-37 90-37 35 0 65 12 90 37 25 25 38 56 38 91l0 54 9 0c8 0 14 3 20 8 5 6 8 12 8 20z"/>
    </symbol>
  
    <symbol id="icon-play" viewBox="0 0 512 512">
      <path d="m450 265l-379 211c-5 2-8 2-11 1-4-2-5-6-5-11l0-420c0-5 1-9 5-11 3-1 6-1 11 1l379 211c5 3 7 6 7 9 0 3-2 6-7 9z"/>
    </symbol>
  
    <symbol id="icon-paintcan" viewBox="0 0 512 512">
      <path d="m256 0c-106 0-192 86-192 192l0 32c0 18 14 32 32 32l0 160c0 35 72 64 160 64 88 0 160-29 160-64l0-160c18 0 32-14 32-32l0-32c0-106-86-192-192-192z m96 320l0 16c0 9-7 16-16 16-9 0-16-7-16-16l0-16c0-9-7-16-16-16-9 0-16 7-16 16l0 80c0 9-7 16-16 16-9 0-16-7-16-16l0-64c0-9-7-16-16-16-9 0-16 7-16 16l0 16c0 18-14 32-32 32-18 0-32-14-32-32l0-32c-18 0-32-14-32-32l0-58c29 16 76 26 128 26 52 0 99-10 128-26l0 58c0 18-14 32-32 32z m-96-96c-54 0-100-13-119-32 19-19 65-32 119-32 54 0 100 13 119 32-19 19-65 32-119 32z m0-96c-88 0-160 29-160 64 0 0 0 0 0 0 0-88 72-160 160-160 88 0 160 72 160 160 0-35-72-64-160-64z"/>
    </symbol>
  
    <symbol id="icon-triangle-down" viewBox="0 0 512 512">
      <path d="m64 192l192 192 192-192z"/>
    </symbol>
  
    <symbol id="icon-triangle-up" viewBox="0 0 512 512">
      <path d="m256 128l-192 192 384 0z"/>
    </symbol>
  
    <symbol id="icon-triangle-right" viewBox="0 0 512 512">
      <path d="m160 64l192 192-192 192z"/>
    </symbol>
  
    <symbol id="icon-triangle-left" viewBox="0 0 512 512">
      <path d="m160 256l192 192 0-384z"/>
    </symbol>
  
    <symbol id="icon-zap" viewBox="0 0 512 512">
      <path d="m416 224l-128 0 96-224-288 288 128 0-96 224z"/>
    </symbol>
  
    <symbol id="icon-x" viewBox="0 0 512 512">
      <path d="m416 160l-64-64-96 96-96-96-64 64 96 96-96 96 64 64 96-96 96 96 64-64-96-96z"/>
    </symbol>
  
    <symbol id="icon-tools" viewBox="0 0 512 512">
      <path d="m143 233c9 8 41 42 41 42l18-18-28-30 54-57c0 0-24-24-14-14 11-38 1-81-28-110-28-30-69-40-105-30l62 64-17 63-60 17-62-64c-10 38-1 79 28 109 30 31 73 40 111 28z m206 62l-74 73 123 128c10 10 23 15 36 15 13 0 27-5 37-15 20-21 20-55 0-76z m163-214l-78-81-231 239 28 29-138 143-32 16-44 73 11 12 70-46 17-33 138-143 28 30z"/>
    </symbol>
  
    <symbol id="icon-trashcan" viewBox="0 0 512 512">
      <path d="m416 64l-128 0c0 0 0-12 0-16 0-9-7-16-16-16-9 0-16 7-16 16 0 9 0 16 0 16l-128 0c-18 0-32 14-32 32l0 32c0 18 14 32 32 32l0 288c0 18 14 32 32 32l224 0c18 0 32-14 32-32l0-288c18 0 32-14 32-32l0-32c0-18-14-32-32-32z m-32 368c0 9-7 16-16 16l-192 0c-9 0-16-7-16-16l0-272 32 0 0 240c0 9 7 16 16 16 9 0 16-7 16-16l0-240 32 0 0 240c0 9 7 16 16 16 9 0 16-7 16-16l0-240 32 0 0 240c0 9 7 16 16 16 9 0 16-7 16-16l0-240 32 0z m32-312c0 4-4 8-8 8l-272 0c-4 0-8-4-8-8l0-16c0-4 4-8 8-8l272 0c4 0 8 4 8 8z"/>
    </symbol>
  
    <symbol id="icon-settings" viewBox="0 0 512 512">
      <path d="m64 448l64 0 0-96-64 0z m64-384l-64 0 0 160 64 0z m160 0l-64 0 0 64 64 0z m-256 256l128 0 0-64-128 0z m192 128l64 0 0-192-64 0z m-32-224l128 0 0-64-128 0z m256-160l-64 0 0 192 64 0z m-96 224l0 64 128 0 0-64z m32 160l64 0 0-64-64 0z"/>
    </symbol>
  
    <symbol id="icon-file-pdf" viewBox="0 0 512 512">
      <path d="m352 32l-288 0 0 448 384 0 0-352z m-256 32l128 0c-7 2-14 8-17 21-7 25-4 66 7 105-12 41-61 138-64 144-8 3-33 12-54 30z m142 154c28 75 47 75 67 84-42 6-74 11-116 29-2 3 38-73 49-113z m178 230l-320 0 0 0c0 0 1 0 1 0 17 0 42-10 90-91 19-8 36-14 39-15 30-7 63-13 94-16 27 13 64 23 84 24 5 0 8-1 12-1z m0-155c-12-8-27-13-45-13-12 0-25 1-39 2-13-6-46-16-73-95 8-52 6-87 6-87 3-26-12-36-26-36 0 0 0 0 0 0l81 0 96 96z"/>
    </symbol>
  
    <symbol id="icon-gear" viewBox="0 0 512 512">
      <path d="m256 175c-45 0-81 36-81 81 0 45 36 81 81 81 45 0 81-36 81-81 0-45-36-81-81-81z m162 128l-14 35 26 51 3 7-36 36-59-28-35 14-18 55-2 7-51 0-22-62-36-14-51 26-7 3-36-36 28-59-14-35-55-18-7-2 0-51 62-22 14-36-26-51-3-7 36-36 59 28 35-14 18-55 2-7 51 0 22 62 36 14 51-26 7-3 36 36-28 59 14 35 55 18 7 2 0 51z"/>
    </symbol>
  
    <symbol id="icon-flow-tree" viewBox="0 0 512 512">
      <path d="m460 378c24 11 37 31 37 57c0 17-6 32-18 44c-12 12-27 18-44 18c-17 0-31-6-43-18c-12-12-18-27-18-44c0-26 12-46 37-57c0 0 0-59 0-59c0-26-13-39-39-39c0 0-51 0-51 0c-16 0-29-2-40-7c0 0 0 105 0 105c24 11 36 31 36 57c0 17-6 32-17 44c-12 12-27 18-44 18c-17 0-32-6-44-18c-11-12-17-27-17-44c0-26 12-46 36-57c0 0 0-105 0-105c-10 5-23 7-38 7c0 0-52 0-52 0c-11 0-20 3-27 9c-6 7-10 12-11 17c-1 5-2 9-2 13c0 0 0 59 0 59c25 11 37 31 37 57c0 17-6 32-18 44c-12 12-26 18-43 18c-17 0-32-6-44-18c-12-12-18-27-18-44c0-26 13-46 37-57c0 0 0-59 0-59c0-21 8-41 22-60c15-18 37-28 67-28c0 0 52 0 52 0c25 0 38-8 38-26c0 0 0-72 0-72c-24-11-36-30-36-56c0-17 6-32 17-44c12-12 27-18 44-18c17 0 32 6 44 18c11 12 17 27 17 44c0 26-12 45-36 56c0 0 0 72 0 72c0 18 13 26 40 26c0 0 51 0 51 0c29 0 51 10 66 28c14 19 22 39 22 60c0 0 0 59 0 59m-347 57c0-10-4-19-11-25c-7-7-16-11-25-11c-10 0-18 4-25 11c-7 6-10 15-10 25c0 10 3 18 10 25c7 7 15 10 25 10c9 0 18-3 25-10c7-7 11-15 11-25m108-358c0 9 4 18 10 24c7 7 15 11 25 11c10 0 18-4 25-11c7-6 11-15 11-24c0-10-4-19-11-26c-7-7-15-10-25-10c-10 0-18 3-25 10c-6 7-10 16-10 26m71 358c0-10-4-19-11-25c-7-7-15-11-25-11c-10 0-18 4-25 11c-6 6-10 15-10 25c0 10 4 18 10 25c7 7 15 10 25 10c10 0 18-3 25-10c7-7 11-15 11-25m143 35c10 0 18-3 25-10c7-7 11-15 11-25c0-10-4-19-11-25c-7-7-15-11-25-11c-9 0-18 4-24 11c-7 6-11 15-11 25c0 10 4 18 11 25c6 7 15 10 24 10"/>
    </symbol>
  
    <symbol id="icon-flow-cascade" viewBox="0 0 512 512">
      <path d="m358 374c17 0 32 6 44 18c12 12 18 26 18 43c0 17-6 32-18 44c-12 12-27 18-44 18c-27 0-46-13-56-38c0 0-84 0-84 0c-30 0-52-9-67-28c-15-18-22-38-22-60c0 0 0-238 0-238c-25-11-37-30-37-56c0-17 6-32 18-44c12-12 27-18 44-18c17 0 31 6 43 18c12 12 18 27 18 44c0 26-12 45-37 56c0 0 0 58 0 58c0 27 13 40 40 40c0 0 84 0 84 0c10-24 29-36 56-36c17 0 32 6 44 17c12 12 18 27 18 44c0 17-6 32-18 44c-12 11-27 17-44 17c-27 0-46-12-56-37c0 0-84 0-84 0c-14 0-28-3-40-9c0 0 0 100 0 100c0 26 13 40 40 40c0 0 84 0 84 0c10-25 29-37 56-37m0-154c-9 0-18 4-25 10c-7 7-10 16-10 26c0 10 3 18 10 25c7 6 16 10 25 10c10 0 18-4 25-10c8-7 11-15 11-25c0-10-3-19-11-26c-7-6-15-10-25-10m-240-143c0 9 3 18 11 24c7 7 15 11 25 11c9 0 18-4 25-11c7-6 10-15 10-24c0-10-3-19-10-26c-7-7-16-10-25-10c-10 0-18 3-25 10c-8 7-11 16-11 26m240 393c10 0 18-3 25-10c8-7 11-15 11-25c0-10-3-19-11-25c-7-7-15-11-25-11c-9 0-18 4-25 11c-7 6-10 15-10 25c0 10 3 18 10 25c7 7 16 10 25 10"/>
    </symbol>
  
    <symbol id="icon-flow-line" viewBox="0 0 512 512">
      <path d="m281 352c24 12 36 31 36 58c0 17-6 31-17 43c-12 12-27 18-44 18c-17 0-32-6-44-18c-11-12-17-26-17-43c0-27 12-46 36-58c0 0 0-193 0-193c-24-12-36-31-36-57c0-17 6-31 17-43c12-12 27-18 44-18c17 0 32 6 44 18c11 12 17 26 17 43c0 26-12 45-36 57c0 0 0 193 0 193m-60-250c0 10 4 18 10 25c7 7 15 10 25 10c10 0 18-3 25-10c7-7 11-15 11-25c0-10-4-18-11-25c-7-7-15-10-25-10c-10 0-18 3-25 10c-6 7-10 15-10 25m35 342c10 0 18-3 25-10c7-7 11-15 11-24c0-11-4-19-11-26c-7-7-15-10-25-10c-10 0-18 3-25 10c-6 7-10 15-10 26c0 9 4 17 10 24c7 7 15 10 25 10"/>
    </symbol>
  
    <symbol id="icon-flow-parallel" viewBox="0 0 512 512">
      <path d="m215 102c0 26-12 45-37 57c0 0 0 193 0 193c25 12 37 31 37 58c0 17-6 31-18 43c-12 12-26 18-43 18c-17 0-32-6-44-18c-12-12-18-26-18-43c0-27 12-46 37-58c0 0 0-193 0-193c-25-12-37-31-37-57c0-17 6-31 18-43c12-12 27-18 44-18c17 0 31 6 43 18c12 12 18 26 18 43m-26 308c0-11-3-19-10-26c-7-7-16-10-25-10c-10 0-18 3-25 10c-7 7-10 15-10 26c0 9 3 17 10 24c7 7 15 10 25 10c9 0 18-3 25-10c7-7 10-15 10-24m-35-273c9 0 18-3 25-10c7-7 10-15 10-25c0-10-3-18-10-25c-7-7-16-10-25-10c-10 0-18 3-25 10c-7 7-10 15-10 25c0 10 3 18 10 25c7 7 15 10 25 10m229 215c25 12 37 31 37 58c0 17-6 31-18 43c-12 12-27 18-44 18c-17 0-31-6-43-18c-12-12-18-26-18-43c0-27 12-46 37-58c0 0 0-193 0-193c-25-12-37-31-37-57c0-17 6-31 18-43c12-12 26-18 43-18c17 0 32 6 44 18c12 12 18 26 18 43c0 26-12 45-37 57c0 0 0 193 0 193m-59-250c0 10 3 18 10 25c7 7 15 10 24 10c10 0 18-3 25-10c8-7 11-15 11-25c0-10-3-18-11-25c-7-7-15-10-25-10c-9 0-17 3-24 10c-7 7-10 15-10 25m34 342c10 0 18-3 25-10c8-7 11-15 11-24c0-11-3-19-11-26c-7-7-15-10-25-10c-9 0-17 3-24 10c-7 7-10 15-10 26c0 9 3 17 10 24c7 7 15 10 24 10"/>
    </symbol>
  
    <symbol id="icon-flow-branch" viewBox="0 0 512 512">
      <path d="m420 102c0 28-13 46-38 57c-2 20-7 37-14 51c-8 15-18 27-32 36c-13 9-25 15-34 19c-10 4-23 9-39 14c-14 4-25 8-32 11c-7 3-15 7-24 12c-9 6-16 12-20 21c-4 8-6 18-8 30c24 11 36 29 36 57c0 17-6 31-18 43c-12 12-26 18-43 18c-17 0-32-6-44-18c-12-12-18-26-18-43c0-27 12-46 37-58c0 0 0-193 0-193c-25-12-37-31-37-57c0-17 6-31 18-43c12-12 27-18 44-18c17 0 31 6 43 18c12 12 18 26 18 43c0 26-12 45-37 57c0 0 0 104 0 104c14-10 37-20 71-31c20-6 34-11 43-14c9-4 17-11 26-21c8-11 13-24 15-39c-24-11-36-30-36-56c0-17 6-31 18-43c12-12 26-18 43-18c17 0 32 6 44 18c12 12 18 26 18 43m-301 0c0 10 3 18 10 25c7 7 15 10 25 10c9 0 18-3 25-10c7-7 10-15 10-25c0-10-3-18-10-25c-7-7-16-10-25-10c-10 0-18 3-25 10c-7 7-10 15-10 25m35 342c9 0 18-3 25-10c7-7 10-15 10-24c0-11-3-19-10-26c-7-7-16-10-25-10c-10 0-18 3-25 10c-7 7-10 15-10 26c0 9 3 17 10 24c7 7 15 10 25 10m204-307c10 0 18-3 25-10c8-7 11-15 11-25c0-10-3-18-11-25c-7-7-15-10-25-10c-9 0-17 3-24 10c-7 7-10 15-10 25c0 10 3 18 10 25c7 7 15 10 24 10"/>
    </symbol>
  
    <symbol id="icon-chart-area" viewBox="0 0 512 512">
      <path d="m499 60c5-7 8-6 8 2c0 0 0 394 0 394c0 0-494 0-494 0c-4 0-6-2-7-4c-1-2-1-5 2-9c0 0 118-147 118-147c7-8 14-8 20-1c0 0 38 34 38 34c4 2 7 4 11 3c4 0 7-2 9-5c0 0 81-122 81-122c5-9 12-10 19-2c0 0 57 53 57 53c7 7 14 6 20-2c0 0 118-194 118-194"/>
    </symbol>
  
    <symbol id="icon-chart-bar" viewBox="0 0 512 512">
      <path d="m435 26c8 0 14 2 19 7c4 5 7 11 7 18c0 0 0 435 0 435c0 0-103 0-103 0c0 0 0-435 0-435c0-17 7-25 21-25c0 0 56 0 56 0m-153 153c7 0 13 3 18 8c5 5 7 11 7 18c0 0 0 281 0 281c0 0-102 0-102 0c0 0 0-281 0-281c0-17 7-26 20-26c0 0 57 0 57 0m-154 154c8 0 14 2 18 7c5 6 8 12 8 18c0 0 0 128 0 128c0 0-103 0-103 0c0 0 0-128 0-128c0-17 7-25 21-25c0 0 56 0 56 0"/>
    </symbol>
  
    <symbol id="icon-sky-eicon-grid" viewBox="0 0 512 512">
      <path d="m222 116c-18 0-37 0-56 0 0 7 0 14 0 20 0 8-3 13-10 13-6 0-10-5-10-12 0-10 0-19 0-29 0-6 3-9 8-12 21-10 41-21 62-31 3-1 6-2 10-2 20 0 40 0 60 0 3 0 7 1 10 2 21 11 41 21 62 31 5 3 7 6 7 11 0 10 1 20 0 30 0 9-8 15-15 10-2-2-4-6-4-10-1-7-1-14-1-21-18 0-37 0-55 0 1 11 2 23 4 34 1 11 3 21 4 31 0 4 2 5 5 6 36 10 71 20 106 29 10 3 12 5 12 15 0 9 0 18 0 27 0 7-5 12-11 12-6 0-9-4-9-12 0-6 0-13 0-19 0 0-1-1-1-2-11 0-22 0-35 0 0 6 0 11 0 17 0 2 0 4 0 6-1 6-5 10-10 10-6 0-10-5-10-11 0-7 0-14 0-22-13 0-26 0-40 0 2 12 3 24 5 36 4 28 7 56 11 84 3 25 7 50 10 75 2 10-3 15-11 14-2 0-4-2-6-3-3-3-6-6-9-8-15-9-30-16-45-25-3-1-6-1-9 0-16 9-32 18-48 27-2 1-4 3-5 5-3 4-7 5-12 4-5-2-7-6-6-11 4-35 9-70 14-105 4-31 8-61 12-92-13 0-26 0-40 0 0 6 0 13 0 20 0 8-3 12-10 12-5 0-10-5-10-12 0-6 0-13 0-20-11 0-23 0-35 0 0 7 1 14 0 22 0 3-3 7-6 9-2 1-7 1-9-1-2-1-4-5-4-8-1-10-1-20-1-30 0-8 2-11 11-13 35-10 70-19 105-29 4-1 7-3 7-8 3-21 5-41 8-62 0 0 0-1 0-2z m-8 254c14 8 27 15 40 22 1 0 3 1 4 0 13-7 26-14 40-22-13-9-26-18-39-26-1-1-5-1-6 0-13 8-26 17-39 26z m42-95c-11 10-22 19-33 29 11 7 21 14 31 21 1 0 3 0 4 0 10-7 20-14 31-21-11-10-22-19-33-29z m54-180c0 0 0 0 0-1-5-2-10-4-14-7-6-4-12-5-19-5-14 1-29 1-43 0-13 0-21 8-32 13 36 0 72 0 108 0z m-5 287c-12 6-23 12-35 19 14 7 26 14 40 22-2-15-4-27-5-41z m-103 41c14-8 27-15 40-22-12-7-23-13-35-19-2 14-3 26-5 41z m42-89c-10-7-18-12-28-19-2 14-4 27-5 41 11-8 22-14 33-22z m24 0c11 7 22 14 33 22-2-14-4-27-5-41-10 7-18 12-28 19z m11-96c-16 0-31 0-47 0 9 7 16 13 24 20 8-7 15-13 23-20z m-13 29c9 7 17 14 26 22-1-14-3-26-5-40-7 6-14 12-21 18z m-46 20c0 0 1 0 1 1 8-7 16-14 25-22-7-6-14-11-21-17-2 13-4 26-5 38z m23-115c11 17 15 16 26 0-4-6-8-11-13-17-5 6-9 11-13 17z m-1-56c5 7 9 12 14 18 5-6 9-11 14-18-10 0-18 0-28 0z m61 101c10 0 19 0 27 0 0 0 0-1 1-1-10-3-19-5-29-8 0 3 1 6 1 9z m-94-9c-5 1-9 3-14 4-5 1-9 3-13 4 6 1 13 1 20 1 8 0 8 0 7-9z m22-4c-1 5-1 8-2 13 1 0 1 0 2 0 3-4 7-8 11-13-4 0-7 0-11 0z m43-48c0 0 0 0 1 0-1-7-2-13-3-21-3 4-5 7-7 10 3 4 6 7 9 11z m-37-1c1 0 1 0 1 1 3-4 6-8 9-11-2-3-4-6-7-9-1 7-2 13-3 19z m33 49c5 8 8 12 12 12-1-14 1-12-12-12z m-8 13c-2-3-4-6-6-8-3 3-4 5-6 8 4 0 8 0 12 0z"/>
    </symbol>
  
    <symbol id="icon-left-open" viewBox="0 0 512 512">
      <path d="m293 115c4-6 11-9 20-9c8 0 15 3 21 9c13 12 13 26 0 41c0 0-96 100-96 100c0 0 96 99 96 99c13 15 13 29 0 41c-6 6-13 8-21 8c-8 0-15-2-20-8c0 0-116-121-116-121c-6-5-8-11-8-19c0-8 2-15 8-20c70-74 109-114 116-121"/>
    </symbol>
  
    <symbol id="icon-right-open" viewBox="0 0 512 512">
      <path d="m219 115c0 0 116 121 116 121c5 5 8 12 8 20c0 8-3 14-8 19c0 0-116 121-116 121c-5 6-12 8-20 8c-9 0-15-2-21-8c-12-12-12-26 0-41c0 0 95-99 95-99c0 0-95-100-95-100c-12-15-12-29 0-41c6-6 13-9 21-9c9 0 15 3 20 9"/>
    </symbol>
  
    <symbol id="icon-down-open" viewBox="0 0 512 512">
      <path d="m396 219c0 0-120 115-120 115c-6 6-12 9-20 9c-8 0-14-3-20-9c0 0-120-115-120-115c-6-5-8-12-8-21c0-8 2-15 8-21c13-13 26-13 40 0c0 0 100 96 100 96c0 0 100-96 100-96c14-13 27-13 40 0c6 6 8 13 8 21c0 9-2 16-8 21"/>
    </symbol>
  
    <symbol id="icon-up-open" viewBox="0 0 512 512">
      <path d="m396 292c6 5 8 12 8 21c0 8-2 15-8 21c-13 13-26 13-40 0c0 0-100-96-100-96c0 0-100 96-100 96c-14 13-27 13-40 0c-6-6-8-13-8-21c0-9 2-16 8-21c0 0 120-115 120-115c5-5 12-8 20-8c8 0 15 3 20 8c0 0 120 115 120 115"/>
    </symbol>
  
    <symbol id="icon-arrow-down" viewBox="0 0 512 512">
      <path d="m213 128l0 192l-96 0l139 139l139-139l-96 0l0-193c0-23-19-42-43-42c-24 0-43 20-43 43z"/>
    </symbol>
  
    <symbol id="icon-arrow-left" viewBox="0 0 512 512">
      <path d="m384 213l-192 0l0-96l-139 139l139 139l0-96l193 0c23 0 42-19 42-43c0-24-20-43-43-43z"/>
    </symbol>
  
    <symbol id="icon-arrow-right" viewBox="0 0 512 512">
      <path d="m107 299l192 0l0 96l138-139l-138-139l0 96l-193 0c-23 0-42 19-42 43c0 24 20 43 43 43z"/>
    </symbol>
  
    <symbol id="icon-arrow-up" viewBox="0 0 512 512">
      <path d="m299 405l0-192l96 0l-139-138l-139 138l96 0l0 193c0 23 19 42 43 42c24 0 43-20 43-43z"/>
    </symbol>
  
    <symbol id="icon-arrow-circle-down" viewBox="0 0 512 512">
      <path d="m403 256c0-5-1-9-5-13l-26-26c-3-3-7-5-13-5-5 0-9 2-12 5l-54 54 0-143c0-5-2-9-6-13-3-3-8-5-13-5l-36 0c-5 0-10 2-13 5-4 4-6 8-6 13l0 143-54-54c-3-3-7-5-12-5-5 0-10 2-13 5l-26 26c-4 4-5 8-5 13 0 5 1 10 5 13l103 104 26 26c4 3 8 5 13 5 5 0 9-2 13-5l26-26 103-104c4-3 5-8 5-13z m72 0c0 40-9 77-29 110-20 34-46 60-80 80-33 20-70 29-110 29-40 0-77-9-110-29-34-20-60-46-80-80-20-33-29-70-29-110 0-40 9-77 29-110 20-34 46-60 80-80 33-20 70-29 110-29 40 0 77 9 110 29 34 20 60 46 80 80 20 33 29 70 29 110z"/>
    </symbol>
  
    <symbol id="icon-arrow-circle-left" viewBox="0 0 512 512">
      <path d="m402 274l0-36c0-5-2-10-5-13-4-4-8-6-13-6l-143 0 54-54c3-3 5-7 5-12 0-5-2-10-5-13l-26-26c-4-4-8-5-13-5-5 0-10 1-13 5l-104 103-26 26c-3 4-5 8-5 13 0 5 2 9 5 13l26 26 104 103c3 4 8 5 13 5 5 0 9-1 13-5l26-26c3-3 5-7 5-13 0-5-2-9-5-12l-54-54 143 0c5 0 9-2 13-6 3-3 5-8 5-13z m73-18c0 40-9 77-29 110-20 34-46 60-80 80-33 20-70 29-110 29-40 0-77-9-110-29-34-20-60-46-80-80-20-33-29-70-29-110 0-40 9-77 29-110 20-34 46-60 80-80 33-20 70-29 110-29 40 0 77 9 110 29 34 20 60 46 80 80 20 33 29 70 29 110z"/>
    </symbol>
  
    <symbol id="icon-arrow-circle-o-down" viewBox="0 0 512 512">
      <path d="m357 265c0 2-1 5-3 7l-91 91c-3 2-5 3-7 3-2 0-4-1-7-3l-91-91c-3-3-4-7-2-10 2-4 4-6 9-6l54 0 0-101c0-2 1-4 3-6 2-2 4-3 7-3l54 0c3 0 5 1 7 3 2 2 3 4 3 6l0 101 54 0c3 0 5 1 7 3 2 1 3 3 3 6z m-101-164c-28 0-54 7-78 20-24 14-43 33-57 57-13 24-20 50-20 78 0 28 7 54 20 78 14 24 33 43 57 57 24 13 50 20 78 20 28 0 54-7 78-20 24-14 43-33 57-57 13-24 20-50 20-78 0-28-7-54-20-78-14-24-33-43-57-57-24-13-50-20-78-20z m219 155c0 40-9 77-29 110-20 34-46 60-80 80-33 20-70 29-110 29-40 0-77-9-110-29-34-20-60-46-80-80-20-33-29-70-29-110 0-40 9-77 29-110 20-34 46-60 80-80 33-20 70-29 110-29 40 0 77 9 110 29 34 20 60 46 80 80 20 33 29 70 29 110z"/>
    </symbol>
  
    <symbol id="icon-arrow-circle-o-right" viewBox="0 0 512 512">
      <path d="m366 256c0 3-1 5-3 7l-91 91c-2 2-4 3-7 3-2 0-4-1-6-3-2-2-3-4-3-7l0-54-101 0c-2 0-4-1-6-3-2-2-3-4-3-7l0-54c0-3 1-5 3-7 2-2 4-3 6-3l101 0 0-54c0-3 1-5 3-7 1-2 3-3 6-3 2 0 5 1 7 3l91 91c2 2 3 4 3 7z m45 0c0-28-7-54-20-78-14-24-33-43-57-57-24-13-50-20-78-20-28 0-54 7-78 20-24 14-43 33-57 57-13 24-20 50-20 78 0 28 7 54 20 78 14 24 33 43 57 57 24 13 50 20 78 20 28 0 54-7 78-20 24-14 43-33 57-57 13-24 20-50 20-78z m64 0c0 40-9 77-29 110-20 34-46 60-80 80-33 20-70 29-110 29-40 0-77-9-110-29-34-20-60-46-80-80-20-33-29-70-29-110 0-40 9-77 29-110 20-34 46-60 80-80 33-20 70-29 110-29 40 0 77 9 110 29 34 20 60 46 80 80 20 33 29 70 29 110z"/>
    </symbol>
  
    <symbol id="icon-arrow-circle-o-left" viewBox="0 0 512 512">
      <path d="m366 229l0 54c0 3-1 5-3 7-2 2-4 3-6 3l-101 0 0 54c0 3-1 5-3 7-1 2-3 3-6 3-2 0-5-1-7-3l-91-91c-2-2-3-4-3-7 0-3 1-5 3-7l91-91c2-2 4-3 7-3 2 0 4 1 6 3 2 2 3 4 3 7l0 54 101 0c2 0 4 1 6 3 2 2 3 4 3 7z m45 27c0-28-7-54-20-78-14-24-33-43-57-57-24-13-50-20-78-20-28 0-54 7-78 20-24 14-43 33-57 57-13 24-20 50-20 78 0 28 7 54 20 78 14 24 33 43 57 57 24 13 50 20 78 20 28 0 54-7 78-20 24-14 43-33 57-57 13-24 20-50 20-78z m64 0c0 40-9 77-29 110-20 34-46 60-80 80-33 20-70 29-110 29-40 0-77-9-110-29-34-20-60-46-80-80-20-33-29-70-29-110 0-40 9-77 29-110 20-34 46-60 80-80 33-20 70-29 110-29 40 0 77 9 110 29 34 20 60 46 80 80 20 33 29 70 29 110z"/>
    </symbol>
  
    <symbol id="icon-arrow-circle-o-up" viewBox="0 0 512 512">
      <path d="m356 250c-2 4-4 6-9 6l-54 0 0 101c0 2-1 4-3 6-2 2-4 3-7 3l-54 0c-3 0-5-1-7-3-2-2-3-4-3-6l0-101-54 0c-3 0-5-1-7-3-2-1-3-3-3-6 0-2 1-5 3-7l91-91c3-2 5-3 7-3 2 0 4 1 7 3l91 91c3 3 4 7 2 10z m-100-149c-28 0-54 7-78 20-24 14-43 33-57 57-13 24-20 50-20 78 0 28 7 54 20 78 14 24 33 43 57 57 24 13 50 20 78 20 28 0 54-7 78-20 24-14 43-33 57-57 13-24 20-50 20-78 0-28-7-54-20-78-14-24-33-43-57-57-24-13-50-20-78-20z m219 155c0 40-9 77-29 110-20 34-46 60-80 80-33 20-70 29-110 29-40 0-77-9-110-29-34-20-60-46-80-80-20-33-29-70-29-110 0-40 9-77 29-110 20-34 46-60 80-80 33-20 70-29 110-29 40 0 77 9 110 29 34 20 60 46 80 80 20 33 29 70 29 110z"/>
    </symbol>
  
    <symbol id="icon-arrow-circle-right" viewBox="0 0 512 512">
      <path d="m404 256c0-5-2-9-5-13l-26-26-104-103c-3-4-8-5-13-5-5 0-9 1-13 5l-26 26c-3 3-5 7-5 13 0 5 2 9 5 12l54 54-143 0c-5 0-9 2-13 6-3 3-5 8-5 13l0 36c0 5 2 10 5 13 4 4 8 6 13 6l143 0-54 54c-3 3-5 7-5 12 0 5 2 10 5 13l26 26c4 4 8 5 13 5 5 0 10-1 13-5l104-103 26-26c3-4 5-8 5-13z m71 0c0 40-9 77-29 110-20 34-46 60-80 80-33 20-70 29-110 29-40 0-77-9-110-29-34-20-60-46-80-80-20-33-29-70-29-110 0-40 9-77 29-110 20-34 46-60 80-80 33-20 70-29 110-29 40 0 77 9 110 29 34 20 60 46 80 80 20 33 29 70 29 110z"/>
    </symbol>
  
    <symbol id="icon-arrow-circle-up" viewBox="0 0 512 512">
      <path d="m403 256c0-5-1-10-5-13l-103-104-26-26c-4-3-8-5-13-5-5 0-9 2-13 5l-26 26-103 104c-4 3-5 8-5 13 0 5 1 9 5 13l26 26c3 3 7 5 13 5 5 0 9-2 12-5l54-54 0 143c0 5 2 9 6 13 3 3 8 5 13 5l36 0c5 0 10-2 13-5 4-4 6-8 6-13l0-143 54 54c3 3 7 5 12 5 5 0 10-2 13-5l26-26c4-4 5-8 5-13z m72 0c0 40-9 77-29 110-20 34-46 60-80 80-33 20-70 29-110 29-40 0-77-9-110-29-34-20-60-46-80-80-20-33-29-70-29-110 0-40 9-77 29-110 20-34 46-60 80-80 33-20 70-29 110-29 40 0 77 9 110 29 34 20 60 46 80 80 20 33 29 70 29 110z"/>
    </symbol>
  
    <symbol id="icon-sky-eicon-info" viewBox="0 0 512 512">
      <path d="m235 363l42 0 0-128-42 0z m21-320c-118 0-213 95-213 213 0 118 95 213 213 213 118 0 213-95 213-213 0-118-95-213-213-213z m0 384c-94 0-171-77-171-171 0-94 77-171 171-171 94 0 171 77 171 171 0 94-77 171-171 171z m-21-235l42 0 0-43-42 0z"/>
    </symbol>
  
    <symbol id="icon-calendar-check-o" viewBox="0 0 512 512">
      <path d="m372 275l-146 147c-2 1-4 2-7 2-2 0-4-1-6-2l-82-83c-2-1-3-4-3-6 0-3 1-5 3-6l13-14c1-1 4-2 6-2 2 0 5 1 7 2l62 63 127-127c2-1 4-2 7-2 2 0 4 1 6 2l13 14c2 1 3 3 3 6 0 2-1 5-3 6z m-335 200l402 0 0-292-402 0z m109-347l0-82c0-3-1-5-2-7-2-2-4-2-7-2l-18 0c-3 0-5 0-7 2-1 2-2 4-2 7l0 82c0 3 1 5 2 7 2 1 4 2 7 2l18 0c3 0 5-1 7-2 1-2 2-4 2-7z m220 0l0-82c0-3-1-5-3-7-2-2-4-2-6-2l-19 0c-2 0-5 0-6 2-2 2-3 4-3 7l0 82c0 3 1 5 3 7 1 1 4 2 6 2l19 0c2 0 4-1 6-2 2-2 3-4 3-7z m109-18l0 365c0 10-3 19-10 26-8 7-16 11-26 11l-402 0c-10 0-19-4-26-11-7-7-11-16-11-26l0-365c0-10 4-19 11-26 7-7 16-11 26-11l36 0 0-27c0-13 5-24 14-33 9-9 19-13 32-13l18 0c13 0 23 4 32 13 9 9 14 20 14 33l0 27 110 0 0-27c0-13 4-24 13-33 9-9 20-13 32-13l19 0c12 0 23 4 32 13 9 9 13 20 13 33l0 27 37 0c10 0 18 4 26 11 7 7 10 16 10 26z"/>
    </symbol>
  
    <symbol id="icon-calendar-minus-o" viewBox="0 0 512 512">
      <path d="m329 320l0 18c0 3-1 5-2 7-2 2-4 2-7 2l-165 0c-2 0-4 0-6-2-2-2-3-4-3-7l0-18c0-3 1-5 3-7 2-1 4-2 6-2l165 0c3 0 5 1 7 2 1 2 2 4 2 7z m-292 155l402 0 0-292-402 0z m109-347l0-82c0-3-1-5-2-7-2-2-4-2-7-2l-18 0c-3 0-5 0-7 2-1 2-2 4-2 7l0 82c0 3 1 5 2 7 2 1 4 2 7 2l18 0c3 0 5-1 7-2 1-2 2-4 2-7z m220 0l0-82c0-3-1-5-3-7-2-2-4-2-6-2l-19 0c-2 0-5 0-6 2-2 2-3 4-3 7l0 82c0 3 1 5 3 7 1 1 4 2 6 2l19 0c2 0 4-1 6-2 2-2 3-4 3-7z m109-18l0 365c0 10-3 19-10 26-8 7-16 11-26 11l-402 0c-10 0-19-4-26-11-7-7-11-16-11-26l0-365c0-10 4-19 11-26 7-7 16-11 26-11l36 0 0-27c0-13 5-24 14-33 9-9 19-13 32-13l18 0c13 0 23 4 32 13 9 9 14 20 14 33l0 27 110 0 0-27c0-13 4-24 13-33 9-9 20-13 32-13l19 0c12 0 23 4 32 13 9 9 13 20 13 33l0 27 37 0c10 0 18 4 26 11 7 7 10 16 10 26z"/>
    </symbol>
  
    <symbol id="icon-calendar-o" viewBox="0 0 512 512">
      <path d="m55 475l402 0 0-292-402 0z m110-347l0-82c0-3-1-5-3-7-2-2-4-2-7-2l-18 0c-3 0-5 0-6 2-2 2-3 4-3 7l0 82c0 3 1 5 3 7 1 1 3 2 6 2l18 0c3 0 5-1 7-2 2-2 3-4 3-7z m219 0l0-82c0-3-1-5-3-7-1-2-3-2-6-2l-18 0c-3 0-5 0-7 2-2 2-3 4-3 7l0 82c0 3 1 5 3 7 2 1 4 2 7 2l18 0c3 0 5-1 6-2 2-2 3-4 3-7z m110-18l0 365c0 10-4 19-11 26-7 7-16 11-26 11l-402 0c-10 0-19-4-26-11-7-7-11-16-11-26l0-365c0-10 4-19 11-26 7-7 16-11 26-11l36 0 0-27c0-13 5-24 14-33 9-9 20-13 32-13l18 0c13 0 24 4 33 13 9 9 13 20 13 33l0 27 110 0 0-27c0-13 4-24 13-33 9-9 20-13 33-13l18 0c12 0 23 4 32 13 9 9 14 20 14 33l0 27 36 0c10 0 19 4 26 11 7 7 11 16 11 26z"/>
    </symbol>
  
    <symbol id="icon-calendar-plus-o" viewBox="0 0 512 512">
      <path d="m439 73c10 0 18 4 26 11 7 7 10 16 10 26l0 365c0 10-3 19-10 26-8 7-16 11-26 11l-402 0c-10 0-19-4-26-11-7-7-11-16-11-26l0-365c0-10 4-19 11-26 7-7 16-11 26-11l36 0 0-27c0-13 5-24 14-33 9-9 19-13 32-13l18 0c13 0 23 4 32 13 9 9 14 20 14 33l0 27 110 0 0-27c0-13 4-24 13-33 9-9 20-13 32-13l19 0c12 0 23 4 32 13 9 9 13 20 13 33l0 27z m-110-27l0 82c0 3 1 5 3 7 1 1 4 2 6 2l19 0c2 0 4-1 6-2 2-2 3-4 3-7l0-82c0-3-1-5-3-7-2-2-4-2-6-2l-19 0c-2 0-5 0-6 2-2 2-3 4-3 7z m-219 0l0 82c0 3 1 5 2 7 2 1 4 2 7 2l18 0c3 0 5-1 7-2 1-2 2-4 2-7l0-82c0-3-1-5-2-7-2-2-4-2-7-2l-18 0c-3 0-5 0-7 2-1 2-2 4-2 7z m329 429l0-292-402 0 0 292z m-183-164l64 0c3 0 5 1 7 2 1 2 2 4 2 7l0 18c0 3-1 5-2 7-2 2-4 2-7 2l-64 0 0 64c0 3-1 5-3 7-1 2-3 3-6 3l-18 0c-3 0-5-1-7-3-2-2-3-4-3-7l0-64-64 0c-2 0-4 0-6-2-2-2-3-4-3-7l0-18c0-3 1-5 3-7 2-1 4-2 6-2l64 0 0-64c0-3 1-5 3-7 2-1 4-2 7-2l18 0c3 0 5 1 6 2 2 2 3 4 3 7z"/>
    </symbol>
  
    <symbol id="icon-calendar-times-o" viewBox="0 0 512 512">
      <path d="m317 396l-13 13c-1 2-4 2-6 2-2 0-5 0-7-2l-53-54-54 54c-2 2-4 2-7 2-2 0-4 0-6-2l-13-13c-2-2-3-4-3-7 0-2 1-4 3-6l54-54-54-54c-2-1-3-4-3-6 0-3 1-5 3-6l13-14c2-1 4-2 6-2 3 0 5 1 7 2l54 54 53-54c2-1 5-2 7-2 2 0 5 1 6 2l13 14c2 1 3 3 3 6 0 2-1 5-3 6l-53 54 53 54c2 2 3 4 3 6 0 3-1 5-3 7z m-280 79l402 0 0-292-402 0z m109-347l0-82c0-3-1-5-2-7-2-2-4-2-7-2l-18 0c-3 0-5 0-7 2-1 2-2 4-2 7l0 82c0 3 1 5 2 7 2 1 4 2 7 2l18 0c3 0 5-1 7-2 1-2 2-4 2-7z m220 0l0-82c0-3-1-5-3-7-2-2-4-2-6-2l-19 0c-2 0-5 0-6 2-2 2-3 4-3 7l0 82c0 3 1 5 3 7 1 1 4 2 6 2l19 0c2 0 4-1 6-2 2-2 3-4 3-7z m109-18l0 365c0 10-3 19-10 26-8 7-16 11-26 11l-402 0c-10 0-19-4-26-11-7-7-11-16-11-26l0-365c0-10 4-19 11-26 7-7 16-11 26-11l36 0 0-27c0-13 5-24 14-33 9-9 19-13 32-13l18 0c13 0 23 4 32 13 9 9 14 20 14 33l0 27 110 0 0-27c0-13 4-24 13-33 9-9 20-13 32-13l19 0c12 0 23 4 32 13 9 9 13 20 13 33l0 27 37 0c10 0 18 4 26 11 7 7 10 16 10 26z"/>
    </symbol>
  
    <symbol id="icon-minus-circle" viewBox="0 0 512 512">
      <path d="m384 274l0-36c0-5-2-10-5-13-4-4-8-6-13-6l-220 0c-5 0-9 2-13 6-3 3-5 8-5 13l0 36c0 5 2 10 5 13 4 4 8 6 13 6l220 0c5 0 9-2 13-6 3-3 5-8 5-13z m91-18c0 40-9 77-29 110-20 34-46 60-80 80-33 20-70 29-110 29-40 0-77-9-110-29-34-20-60-46-80-80-20-33-29-70-29-110 0-40 9-77 29-110 20-34 46-60 80-80 33-20 70-29 110-29 40 0 77 9 110 29 34 20 60 46 80 80 20 33 29 70 29 110z"/>
    </symbol>
  
    <symbol id="icon-minus-square" viewBox="0 0 512 512">
      <path d="m402 274l0-36c0-5-2-10-5-13-4-4-8-6-13-6l-256 0c-5 0-9 2-13 6-3 3-5 8-5 13l0 36c0 5 2 10 5 13 4 4 8 6 13 6l256 0c5 0 9-2 13-6 3-3 5-8 5-13z m73-155l0 274c0 23-8 42-24 58-16 16-35 24-58 24l-274 0c-23 0-42-8-58-24-16-16-24-35-24-58l0-274c0-23 8-42 24-58 16-16 35-24 58-24l274 0c23 0 42 8 58 24 16 16 24 35 24 58z"/>
    </symbol>
  
    <symbol id="icon-check-circle" viewBox="0 0 512 512">
      <path d="m403 210c0-6-1-10-5-13l-26-26c-3-4-8-6-13-6-5 0-9 2-12 6l-117 116-65-64c-3-4-7-6-12-6-5 0-10 2-13 6l-26 25c-4 4-5 8-5 13 0 6 1 10 5 13l103 104c4 3 8 5 13 5 5 0 10-2 13-5l155-155c4-4 5-8 5-13z m72 46c0 40-9 77-29 110-20 34-46 60-80 80-33 20-70 29-110 29-40 0-77-9-110-29-34-20-60-46-80-80-20-33-29-70-29-110 0-40 9-77 29-110 20-34 46-60 80-80 33-20 70-29 110-29 40 0 77 9 110 29 34 20 60 46 80 80 20 33 29 70 29 110z"/>
    </symbol>
  
    <symbol id="icon-check-square" viewBox="0 0 512 512">
      <path d="m232 371l176-175c3-4 5-8 5-13 0-5-2-9-5-13l-29-29c-4-4-8-6-13-6-5 0-10 2-13 6l-134 133-60-60c-3-4-8-5-13-5-5 0-9 1-13 5l-29 29c-3 4-5 8-5 13 0 5 2 9 5 13l103 102c3 4 7 6 12 6 5 0 10-2 13-6z m243-252l0 274c0 23-8 42-24 58-16 16-35 24-58 24l-274 0c-23 0-42-8-58-24-16-16-24-35-24-58l0-274c0-23 8-42 24-58 16-16 35-24 58-24l274 0c23 0 42 8 58 24 16 16 24 35 24 58z"/>
    </symbol>
  
    <symbol id="icon-times-circle" viewBox="0 0 512 512">
      <path d="m365 321c0-5-2-10-6-13l-51-52 51-52c4-3 6-8 6-13 0-5-2-9-6-13l-25-25c-4-4-8-6-13-6-5 0-10 2-13 6l-52 51-52-51c-3-4-8-6-13-6-5 0-9 2-13 6l-25 25c-4 4-6 8-6 13 0 5 2 10 6 13l51 52-51 52c-4 3-6 8-6 13 0 5 2 9 6 13l25 25c4 4 8 6 13 6 5 0 10-2 13-6l52-51 52 51c3 4 8 6 13 6 5 0 9-2 13-6l25-25c4-4 6-8 6-13z m110-65c0 40-9 77-29 110-20 34-46 60-80 80-33 20-70 29-110 29-40 0-77-9-110-29-34-20-60-46-80-80-20-33-29-70-29-110 0-40 9-77 29-110 20-34 46-60 80-80 33-20 70-29 110-29 40 0 77 9 110 29 34 20 60 46 80 80 20 33 29 70 29 110z"/>
    </symbol>
  
    <symbol id="icon-ban" viewBox="0 0 512 512">
      <path d="m411 255c0-31-8-59-24-84l-216 215c26 17 55 25 85 25 21 0 41-4 60-12 20-8 36-19 50-33 14-14 25-31 33-50 8-19 12-40 12-61z m-285 86l216-216c-26-17-55-26-86-26-28 0-54 7-78 21-24 14-43 33-57 57-13 24-20 50-20 78 0 31 8 59 25 86z m349-86c0 30-5 59-17 86-12 27-27 51-47 70-19 20-43 35-70 47-27 12-55 17-85 17-30 0-58-5-85-17-27-12-51-27-70-47-20-19-35-43-47-70-12-27-17-56-17-86 0-30 5-58 17-85 12-28 27-51 47-71 19-19 43-35 70-46 27-12 55-18 85-18 30 0 58 6 85 18 27 11 51 27 70 46 20 20 35 43 47 71 12 27 17 55 17 85z"/>
    </symbol>
  
    <symbol id="icon-ellipsis-h" viewBox="0 0 512 512">
      <path d="m165 210l0 55c0 8-3 14-8 20-6 5-12 8-20 8l-55 0c-7 0-14-3-19-8-5-6-8-12-8-20l0-55c0-7 3-14 8-19 5-5 12-8 19-8l55 0c8 0 14 3 20 8 5 5 8 12 8 19z m146 0l0 55c0 8-3 14-8 20-5 5-12 8-20 8l-54 0c-8 0-15-3-20-8-5-6-8-12-8-20l0-55c0-7 3-14 8-19 5-5 12-8 20-8l54 0c8 0 15 3 20 8 5 5 8 12 8 19z m146 0l0 55c0 8-3 14-8 20-5 5-12 8-19 8l-55 0c-8 0-14-3-20-8-5-6-8-12-8-20l0-55c0-7 3-14 8-19 6-5 12-8 20-8l55 0c7 0 14 3 19 8 5 5 8 12 8 19z"/>
    </symbol>
  
    <symbol id="icon-ellipsis-v" viewBox="0 0 512 512">
      <path d="m311 357l0 54c0 8-3 15-8 20-5 5-12 8-20 8l-54 0c-8 0-15-3-20-8-5-5-8-12-8-20l0-54c0-8 3-15 8-20 5-5 12-8 20-8l54 0c8 0 15 3 20 8 5 5 8 12 8 20z m0-147l0 55c0 8-3 14-8 20-5 5-12 8-20 8l-54 0c-8 0-15-3-20-8-5-6-8-12-8-20l0-55c0-7 3-14 8-19 5-5 12-8 20-8l54 0c8 0 15 3 20 8 5 5 8 12 8 19z m0-146l0 55c0 7-3 14-8 19-5 6-12 8-20 8l-54 0c-8 0-15-2-20-8-5-5-8-12-8-19l0-55c0-8 3-14 8-19 5-6 12-8 20-8l54 0c8 0 15 2 20 8 5 5 8 11 8 19z"/>
    </symbol>
  
    <symbol id="icon-info-circle" viewBox="0 0 512 512">
      <path d="m329 393l0-46c0-2-1-4-2-6-2-2-4-3-7-3l-27 0 0-146c0-3-1-5-3-7-2-1-4-2-7-2l-91 0c-3 0-5 1-7 2-1 2-2 4-2 7l0 46c0 2 1 5 2 6 2 2 4 3 7 3l27 0 0 91-27 0c-3 0-5 1-7 3-1 2-2 4-2 6l0 46c0 3 1 5 2 7 2 1 4 2 7 2l128 0c3 0 5-1 7-2 1-2 2-4 2-7z m-36-256l0-46c0-2-1-4-3-6-2-2-4-3-7-3l-54 0c-3 0-5 1-7 3-2 2-3 4-3 6l0 46c0 3 1 5 3 7 2 1 4 2 7 2l54 0c3 0 5-1 7-2 2-2 3-4 3-7z m182 119c0 40-9 77-29 110-20 34-46 60-80 80-33 20-70 29-110 29-40 0-77-9-110-29-34-20-60-46-80-80-20-33-29-70-29-110 0-40 9-77 29-110 20-34 46-60 80-80 33-20 70-29 110-29 40 0 77 9 110 29 34 20 60 46 80 80 20 33 29 70 29 110z"/>
    </symbol>
  
    <symbol id="icon-info" viewBox="0 0 512 512">
      <path d="m347 384l0 37c0 5-1 9-5 12-4 4-8 6-13 6l-146 0c-5 0-9-2-13-6-4-3-5-7-5-12l0-37c0-5 1-9 5-13 4-3 8-5 13-5l18 0 0-110-18 0c-5 0-9-2-13-5-4-4-5-8-5-13l0-37c0-5 1-9 5-13 4-3 8-5 13-5l110 0c5 0 9 2 12 5 4 4 6 8 6 13l0 165 18 0c5 0 9 2 13 5 4 4 5 8 5 13z m-36-329l0 55c0 5-2 9-6 13-3 3-7 5-12 5l-74 0c-5 0-9-2-12-5-4-4-6-8-6-13l0-55c0-5 2-9 6-13 3-4 7-5 12-5l74 0c5 0 9 1 12 5 4 4 6 8 6 13z"/>
    </symbol>
  
    <symbol id="icon-pencil" viewBox="0 0 512 512">
      <path d="m140 439l26-26-67-67-26 26 0 30 37 0 0 37z m150-265c0-4-2-7-7-7-1 0-3 1-4 2l-155 155c-2 2-2 3-2 5 0 4 2 6 6 6 2 0 4 0 5-2l155-154c1-2 2-3 2-5z m-16-55l119 119-238 237-118 0 0-118z m195 27c0 10-3 19-10 26l-48 47-118-118 47-48c7-7 15-10 26-10 10 0 18 3 26 10l67 67c7 8 10 16 10 26z"/>
    </symbol>
  
    <symbol id="icon-paper-plane" viewBox="0 0 512 512">
      <path d="m504 3c6 5 9 11 8 18l-73 439c-1 6-4 10-10 13-2 2-5 2-8 2-3 0-5 0-7-1l-130-53-69 84c-3 5-8 7-14 7-2 0-4 0-6-1-4-1-7-4-9-7-2-3-3-6-3-10l0-100 247-303-306 265-113-47c-7-2-10-7-11-15 0-8 3-14 9-17l476-274c2-2 5-3 9-3 4 0 7 1 10 3z"/>
    </symbol>
  
    <symbol id="icon-paper-plane-o" viewBox="0 0 512 512">
      <path d="m504 3c6 5 9 11 8 18l-73 439c-1 6-4 10-10 13-2 2-5 2-8 2-3 0-5 0-7-1l-151-61-85 93c-3 4-8 6-13 6-3 0-5 0-7-1-4-1-6-4-9-7-2-3-3-6-3-10l0-129-135-56c-7-2-10-7-11-15-1-8 2-13 9-17l476-274c6-4 13-4 19 0z m-98 428l63-378-409 237 96 39 246-183-136 228z"/>
    </symbol>
  
    <symbol id="icon-paint-brush" viewBox="0 0 512 512">
      <path d="m461 0c14 0 25 4 35 13 10 9 15 20 15 34 0 12-4 26-12 43-64 120-108 191-133 215-19 17-40 26-63 26-24 0-44-9-61-27-18-17-26-38-26-63 0-24 8-44 26-60l182-166c12-10 24-15 37-15z m-259 295c7 15 17 27 30 38 13 10 27 17 43 21l0 21c1 40-11 73-37 99-25 25-58 38-99 38-24 0-44-4-62-13-19-9-33-21-44-37-11-15-19-33-25-52-5-19-8-40-8-63 1 1 5 4 12 9 6 4 12 9 17 12 6 4 11 8 17 11 6 3 11 5 13 5 8 0 13-4 16-11 5-12 10-23 17-32 6-9 12-16 19-22 7-5 16-10 26-13 9-4 19-6 29-8 10-1 22-2 36-3z"/>
    </symbol>
  
    <symbol id="icon-refresh" viewBox="0 0 512 512">
      <path d="m468 302c0 1 0 1 0 2-12 51-38 92-77 124-38 32-84 47-136 47-28 0-55-5-81-15-26-11-49-26-69-45l-37 37c-4 3-8 5-13 5-5 0-9-2-13-5-4-4-5-8-5-13l0-128c0-5 1-9 5-13 4-4 8-5 13-5l128 0c5 0 9 1 13 5 3 4 5 8 5 13 0 5-2 9-5 13l-39 39c13 12 28 22 46 29 17 7 35 10 53 10 26 0 49-6 71-18 23-13 40-30 54-51 2-4 7-15 15-34 1-4 4-6 8-6l55 0c3 0 5 0 7 2 1 2 2 4 2 7z m7-229l0 128c0 5-1 9-5 13-4 4-8 5-13 5l-128 0c-5 0-9-1-13-5-3-4-5-8-5-13 0-5 2-9 5-13l40-39c-28-26-62-39-100-39-26 0-49 6-71 18-23 13-40 30-54 51-2 4-7 15-15 34-1 4-4 6-8 6l-57 0c-3 0-5 0-7-2-1-2-2-4-2-7l0-2c12-51 38-92 77-124 39-32 85-47 137-47 28 0 55 5 81 15 26 11 50 26 70 45l37-37c4-3 8-5 13-5 5 0 9 2 13 5 4 4 5 8 5 13z"/>
    </symbol>
  
    <symbol id="icon-retweet" viewBox="0 0 512 512">
      <path d="m347 430c0 2 0 4-2 6-2 2-4 3-7 3l-274 0c-2 0-3 0-4-1-1 0-2-1-2-2-1-1-2-1-2-2 0-1-1-2-1-3 0-2 0-3 0-4l0-171-55 0c-5 0-9-2-13-5-3-4-5-8-5-13 0-5 1-9 4-12l91-110c4-4 9-6 14-6 6 0 11 2 14 6l92 110c3 3 4 7 4 12 0 5-2 9-5 13-4 3-8 5-13 5l-55 0 0 110 165 0c3 0 5 1 7 3l45 55c2 2 2 4 2 6z m183-119c0 4-1 8-4 12l-91 109c-4 5-9 7-14 7-6 0-11-2-14-7l-92-109c-3-4-4-8-4-12 0-5 2-9 5-13 4-4 8-5 13-5l55 0 0-110-165 0c-3 0-5-1-7-4l-45-54c-2-2-2-4-2-6 0-3 0-5 2-7 2-1 4-2 7-2l274 0c2 0 3 0 4 0 1 1 2 1 2 2 1 1 2 2 2 3 0 0 1 1 1 3 0 1 0 3 0 3l0 172 55 0c5 0 9 1 13 5 3 4 5 8 5 13z"/>
    </symbol>
  
    <symbol id="icon-search" viewBox="0 0 512 512">
      <path d="m493 416l-125-125c18-29 29-62 29-99 0-106-86-192-192-192-106 0-192 86-192 192 0 106 86 192 192 192 36 0 70-11 99-28l125 124c9 9 23 9 32 0l32-32c9-9 9-23 0-32z m-288-96c-71 0-128-57-128-128 0-71 57-128 128-128 70 0 128 57 128 128 0 71-58 128-128 128z"/>
    </symbol>
  
    <symbol id="icon-loop" viewBox="0 0 512 512">
      <path d="m435 159c15 0 27 5 37 15c9 9 14 22 14 36c0 0 0 148 0 148c0 14-5 26-14 36c-10 10-22 16-37 16c0 0-358 0-358 0c-14 0-26-6-36-16c-10-10-15-22-15-36c0 0 0-148 0-148c0-14 5-27 15-36c10-10 22-15 36-15c0 0 128 0 128 0c0 0 0-57 0-57c0 0 102 93 102 93c0 0-102 92-102 92c0 0 0-57 0-57c0 0-108 0-108 0c0 0 0 108 0 108c0 0 318 0 318 0c0 0 0-108 0-108c0 0-77 0-77 0c0 0 0-71 0-71c0 0 97 0 97 0"/>
    </symbol>
  
    <symbol id="icon-star" viewBox="0 0 512 512">
      <path d="m494 185c0 4-3 9-8 14l-103 101 24 143c0 1 0 3 0 5 0 4-1 8-3 10-2 3-4 5-8 5-4 0-8-2-12-4l-128-67-128 67c-4 2-8 4-12 4-4 0-7-2-9-5-2-2-3-6-3-10 0-1 0-3 1-5l24-143-104-101c-4-6-7-10-7-14 0-7 6-12 16-13l144-21 64-130c4-8 8-12 14-12 6 0 10 4 14 12l64 130 144 21c10 1 16 6 16 13z"/>
    </symbol>
  
    <symbol id="icon-star-o" viewBox="0 0 512 512">
      <path d="m343 287l88-85-121-18-54-109-54 109-121 18 88 85-21 120 108-57 108 57z m151-102c0 4-3 9-8 14l-103 101 24 143c0 1 0 3 0 5 0 10-3 15-11 15-4 0-8-2-12-4l-128-67-128 67c-4 2-8 4-12 4-4 0-7-2-9-5-2-2-3-6-3-10 0-1 0-3 1-5l24-143-104-101c-4-6-7-10-7-14 0-7 6-12 16-13l144-21 64-130c4-8 8-12 14-12 6 0 10 4 14 12l64 130 144 21c10 1 16 6 16 13z"/>
    </symbol>
  
    <symbol id="icon-chart-line" viewBox="0 0 512 512">
      <path d="m17 290c-14-4-20-13-16-29c3-14 12-20 27-16c0 0 50 12 50 12c0 0-26 41-26 41c0 0-35-8-35-8m455 6c4-4 10-6 16-6c7 1 12 3 16 8c11 11 11 22-1 33c0 0-128 115-128 115c-5 4-10 6-16 6c-5 0-9-2-14-5c0 0-146-112-146-112c0 0-28-8-28-8c0 0 26-40 26-40c0 0 18 4 18 4c4 1 7 2 8 4c0 0 135 104 135 104c0 0 114-103 114-103m-251-112c0 0-178 280-178 280c-4 8-11 12-20 12c-4 0-8-2-12-5c-5-3-9-8-10-14c-1-7 0-12 3-17c0 0 191-300 191-300c3-6 7-9 14-11c6-2 12-1 19 3c0 0 125 80 125 80c0 0 115-166 115-166c4-6 9-9 15-10c6-1 12 1 17 5c13 8 15 18 6 31c0 0-128 185-128 185c-9 12-19 14-32 6c0 0-125-79-125-79"/>
    </symbol>
  
    <symbol id="icon-list-ul" viewBox="0 0 512 512">
      <path d="m110 402c0 16-6 28-16 39-11 11-24 16-39 16-15 0-28-5-39-16-11-11-16-23-16-39 0-15 5-28 16-39 11-10 24-16 39-16 15 0 28 6 39 16 10 11 16 24 16 39z m0-146c0 15-6 28-16 39-11 11-24 16-39 16-15 0-28-5-39-16-11-11-16-24-16-39 0-15 5-28 16-39 11-11 24-16 39-16 15 0 28 5 39 16 10 11 16 24 16 39z m402 119l0 55c0 2-1 4-3 6-2 2-4 3-6 3l-348 0c-2 0-4-1-6-3-2-2-3-4-3-6l0-55c0-3 1-5 3-7 2-1 4-2 6-2l348 0c2 0 4 1 6 2 2 2 3 4 3 7z m-402-265c0 15-6 28-16 39-11 10-24 16-39 16-15 0-28-6-39-16-11-11-16-24-16-39 0-16 5-28 16-39 11-11 24-16 39-16 15 0 28 5 39 16 10 11 16 23 16 39z m402 119l0 54c0 3-1 5-3 7-2 2-4 3-6 3l-348 0c-2 0-4-1-6-3-2-2-3-4-3-7l0-54c0-3 1-5 3-7 2-2 4-3 6-3l348 0c2 0 4 1 6 3 2 2 3 4 3 7z m0-147l0 55c0 3-1 5-3 7-2 1-4 2-6 2l-348 0c-2 0-4-1-6-2-2-2-3-4-3-7l0-55c0-2 1-4 3-6 2-2 4-3 6-3l348 0c2 0 4 1 6 3 2 2 3 4 3 6z"/>
    </symbol>
  
    <symbol id="icon-bars" viewBox="0 0 512 512">
      <path d="m475 384l0 37c0 5-1 9-5 12-4 4-8 6-13 6l-402 0c-5 0-9-2-13-6-4-3-5-7-5-12l0-37c0-5 1-9 5-13 4-3 8-5 13-5l402 0c5 0 9 2 13 5 4 4 5 8 5 13z m0-146l0 36c0 5-1 10-5 13-4 4-8 6-13 6l-402 0c-5 0-9-2-13-6-4-3-5-8-5-13l0-36c0-5 1-10 5-13 4-4 8-6 13-6l402 0c5 0 9 2 13 6 4 3 5 8 5 13z m0-147l0 37c0 5-1 9-5 13-4 3-8 5-13 5l-402 0c-5 0-9-2-13-5-4-4-5-8-5-13l0-37c0-5 1-9 5-12 4-4 8-6 13-6l402 0c5 0 9 2 13 6 4 3 5 7 5 12z"/>
    </symbol>
  
    <symbol id="icon-layout" viewBox="0 0 512 512">
      <path d="m189 102c28 0 41 14 41 41c0 0 0 46 0 46c0 28-13 41-41 41c0 0-46 0-46 0c-27 0-41-13-41-41c0 0 0-46 0-46c0-27 14-41 41-41c0 0 46 0 46 0m180 0c27 0 41 14 41 41c0 0 0 46 0 46c0 28-14 41-41 41c0 0-46 0-46 0c-28 0-41-13-41-41c0 0 0-46 0-46c0-27 13-41 41-41c0 0 46 0 46 0m-180 180c28 0 41 13 41 41c0 0 0 46 0 46c0 27-13 41-41 41c0 0-46 0-46 0c-27 0-41-14-41-41c0 0 0-46 0-46c0-28 14-41 41-41c0 0 46 0 46 0m180 0c27 0 41 13 41 41c0 0 0 46 0 46c0 27-14 41-41 41c0 0-46 0-46 0c-28 0-41-14-41-41c0 0 0-46 0-46c0-28 13-41 41-41c0 0 46 0 46 0"/>
    </symbol>
  
    <symbol id="icon-ship" viewBox="0 0 512 512">
      <path d="m14 236l0-3c0-7 2-13 7-17c5-4 11-6 16-6l58 0l15-32c2-5 6-9 12-13c6-3 13-5 21-5l62 0c3-4 6-8 9-11c3-4 6-7 8-11c3-4 5-7 7-9c11-11 25-16 42-16l20 0c9 0 16 2 22 6c3 2 6 6 8 11c1 2 3 6 6 13c3 7 5 13 7 17l24 0c7 0 14 2 20 7c5 4 9 10 10 16l6 27l88 0c5 0 9 2 12 5c3 3 4 7 4 11c0 2 0 4 0 6c-3 7-7 14-11 22c-4 8-10 16-18 26c-7 10-16 18-25 25c-9 8-20 14-33 19c-13 5-26 8-41 8l-301 0c-36 0-54-32-55-96z m6 145c0-1 0-3 2-4c1-2 3-3 4-3c5 0 9-1 13-3c4-2 9-5 15-7c5-2 12-4 19-4c6 0 12 1 16 3c4 1 8 3 10 4c2 2 4 4 7 5c3 2 6 2 10 2c4 0 8-1 12-3c5-2 9-5 15-7c6-2 12-4 20-4c6 0 11 1 15 3c5 1 8 3 10 4c2 2 5 4 8 5c3 2 6 2 9 2c5 0 9-1 13-3c4-2 9-5 15-7c5-2 12-4 19-4c6 0 12 1 16 3c4 1 8 3 10 4c2 2 4 4 7 5c3 2 6 2 10 2c4 0 8-1 12-3c5-2 9-5 15-7c6-2 12-4 20-4c6 0 11 1 15 3c5 1 8 3 10 4c2 2 5 4 8 5c3 2 6 2 9 2c5 0 9-1 13-3c4-2 9-5 15-7c5-2 12-4 19-4c6 0 12 1 16 3c4 1 8 3 10 4c2 2 4 4 7 5c3 2 6 2 10 2c2 0 3 1 5 3c1 1 2 3 2 4c0 2-1 4-2 5c-2 2-3 2-5 2c-6 0-11-1-15-2c-4-1-7-3-9-5c-2-2-5-3-8-5c-3-1-7-2-11-2c-5 0-9 1-14 4c-4 2-9 4-14 7c-5 2-11 3-19 3c-5 0-10-1-14-2c-5-1-8-3-10-5c-2-2-4-3-8-5c-3-1-6-2-10-2c-5 0-10 1-14 4c-5 2-10 4-15 7c-5 2-11 3-18 3c-6 0-11-1-15-2c-4-1-7-3-9-5c-2-2-5-3-8-5c-3-1-7-2-11-2c-5 0-9 1-14 4c-4 2-9 4-14 7c-5 2-11 3-19 3c-5 0-10-1-14-2c-5-1-8-3-10-5c-2-2-4-3-8-5c-3-1-6-2-10-2c-5 0-10 1-14 4c-5 2-10 4-15 7c-5 2-11 3-18 3c-6 0-11-1-15-2c-4-1-7-3-9-5c-2-2-5-3-8-5c-3-1-7-2-11-2c-5 0-10 1-14 4c-4 2-9 4-14 7c-5 2-12 3-19 3c-1 0-3 0-4-2c-2-1-2-3-2-5z m90-110c0 4 2 8 5 12c4 4 8 6 12 6c4 0 8-2 12-6c4-4 5-8 5-12c0-4-1-8-5-11c-4-4-8-6-12-6c-4 0-8 2-12 6c-3 3-5 7-5 11z m15-52l239 0l-6-27l-35 0c-3 0-5-1-8-3c-3-2-5-4-6-7c-6-14-12-27-16-37l-22 0c-8 0-12 0-13 1c-1 0-2 1-4 4c-1 0-3 3-7 8c-4 5-8 11-13 17c0 0-1 2-3 4c-2 3-3 5-4 6c-1 2-4 3-6 5c-3 1-7 2-11 2l-67 0c-1 0-2 0-3 0c-1 0-1 0-1 0z m85 52c0 4 2 8 5 12c4 4 8 6 12 6c4 0 8-2 12-6c4-4 6-8 6-12c0-4-2-8-6-12c-4-4-8-5-12-5c-4 0-8 1-12 5c-3 4-5 8-5 12z m101 0c0 4 2 8 5 12c4 4 8 6 12 6c4 0 8-2 12-6c3-4 5-8 5-12c0-4-2-8-5-12c-4-4-8-5-12-5c-4 0-8 1-12 5c-3 4-5 8-5 12z"/>
    </symbol>
  
    <symbol id="icon-link" viewBox="0 0 512 512">
      <path d="m434 347c0-7-2-14-8-19l-59-59c-5-6-12-8-20-8-8 0-14 3-20 9 0 0 2 2 5 5 3 3 5 5 6 6 1 1 3 3 5 6 2 2 3 4 3 7 1 2 1 5 1 8 0 7-2 14-8 19-5 5-11 8-19 8-3 0-5 0-8-1-2-1-5-2-7-4-3-1-4-3-6-4-1-1-3-3-6-6-3-3-4-5-5-5-6 5-9 12-9 20 0 8 2 15 8 20l58 59c6 5 12 8 20 8 7 0 14-3 19-8l42-41c6-6 8-12 8-20z m-201-201c0-8-2-14-8-19l-58-60c-6-5-12-8-20-8-7 0-14 3-19 8l-42 42c-6 5-8 12-8 19 0 8 2 14 8 19l59 60c5 5 12 8 20 8 8 0 14-3 20-9 0-1-2-3-5-6-3-3-5-5-6-6-1-1-3-3-5-5-2-3-3-5-3-7-1-3-1-5-1-8 0-8 2-14 8-20 5-5 11-8 19-8 3 0 5 1 8 1 2 1 5 2 7 4 3 2 4 3 6 4 1 1 3 3 6 6 3 3 4 5 5 6 6-6 9-13 9-21z m256 201c0 23-8 43-24 58l-42 42c-16 16-35 24-58 24-23 0-43-8-58-24l-59-60c-16-15-24-35-24-58 0-23 8-43 25-59l-25-25c-16 16-36 25-59 25-23 0-43-8-59-24l-59-60c-16-16-24-35-24-58 0-23 8-42 24-58l42-42c16-16 35-23 58-23 23 0 43 8 58 24l59 59c16 16 24 35 24 58 0 23-8 43-25 60l25 25c16-17 36-25 59-25 23 0 43 8 59 24l59 59c16 16 24 36 24 58z"/>
    </symbol>
  
    <symbol id="icon-link-1" viewBox="0 0 512 512">
      <path d="m384 128l-69 0c24 16 47 45 54 64l15 0c32 0 64 32 64 64 0 32-33 64-64 64l-96 0c-32 0-64-32-64-64 0-11 3-22 9-32l-69 0c-2 11-4 21-4 32 0 64 64 128 128 128 64 0 32 0 96 0 64 0 128-64 128-128 0-64-64-128-128-128z m-240 192l-15 0c-33 0-64-32-64-64 0-32 32-64 64-64l96 0c31 0 64 32 64 64 0 12-4 23-9 32l68 0c3-10 4-21 4-32 0-64-63-128-127-128-64 0-33 0-97 0-64 0-128 64-128 128 0 64 64 128 128 128l69 0c-24-16-46-44-53-64z"/>
    </symbol>
  
    <symbol id="icon-share" viewBox="0 0 512 512">
      <path d="m375 196c-8 0-15 1-22 4l-156-90c0-2 0-3 0-4c0-34-27-61-60-61c-33 0-60 27-60 61c0 33 27 60 60 60c13 0 25-4 35-12l145 84c-1 6-2 12-2 18c0 6 1 12 2 18l-144 84c-10-7-23-12-36-12c-33 0-60 27-60 60c0 34 27 61 60 61c33 0 60-27 60-61c0-1 0-2 0-3l157-91c6 3 13 4 21 4c33 0 60-27 60-60c0-33-27-60-60-60z"/>
    </symbol>
  
    <symbol id="icon-clone" viewBox="0 0 512 512">
      <path d="m475 466l0-311c0-2 0-4-2-6-2-2-4-3-7-3l-311 0c-2 0-4 1-6 3-2 2-3 4-3 6l0 311c0 3 1 5 3 7 2 2 4 2 6 2l311 0c3 0 5 0 7-2 2-2 2-4 2-7z m37-311l0 311c0 13-4 24-13 33-9 9-20 13-33 13l-311 0c-12 0-23-4-32-13-9-9-13-20-13-33l0-311c0-12 4-23 13-32 9-9 20-13 32-13l311 0c13 0 24 4 33 13 9 9 13 20 13 32z m-110-109l0 45-36 0 0-45c0-3-1-5-3-7-2-2-4-2-6-2l-311 0c-3 0-5 0-7 2-2 2-2 4-2 7l0 311c0 2 0 4 2 6 2 2 4 3 7 3l45 0 0 36-45 0c-13 0-24-4-33-13-9-9-13-20-13-32l0-311c0-13 4-24 13-33 9-9 20-13 33-13l311 0c12 0 23 4 32 13 9 9 13 20 13 33z"/>
    </symbol>
  
    <symbol id="icon-connectdevelop" viewBox="0 0 512 512">
      <path d="m549 256c0 4-2 7-4 10-3 3-6 5-10 6l-58 101c0 2 1 4 1 6 0 3-1 7-4 10-2 3-5 5-9 5l-55 97c0 1 1 3 1 4 0 5-2 8-5 12-3 3-7 4-12 4-4 0-8-1-11-5l-115 0c-3 4-7 6-12 6-5 0-9-2-12-6l-114 0c-4 4-8 6-13 6-4 0-8-2-11-5-3-3-5-7-5-11 0-2 1-4 1-6l-55-96c-4 0-7-2-9-5-3-3-4-7-4-10 0-2 1-4 1-6l-59-101c-4-1-7-3-9-6-2-3-4-6-4-10 0-4 2-8 4-11 3-3 6-5 10-5l57-99c0 0 0 0 0 0-1-1-1-1-1-1 0-7 4-12 10-15l60-104c-1-1-1-3-1-5 0-4 1-8 5-11 3-3 7-5 11-5 5 0 9 2 13 6l113 0c3-4 7-6 12-6 5 0 9 2 12 6l114 0c3-4 8-6 13-6 4 0 8 2 11 5 3 3 5 7 5 11 0 1-1 3-1 5l59 103c4 0 8 2 11 5 3 3 5 7 5 11 0 2-1 5-2 7l53 93c4 1 7 3 9 6 2 3 4 6 4 10z m-282 228l111 0-97-101-41 0-98 101 103 0c3-3 7-5 11-5 4 0 8 2 11 5z m-272-232c1 1 1 2 1 4 0 2 0 3-1 4l60 103c0 0 0 0 1 0 0 0 1 1 1 1l2 1 54-57 0-99-54-56c-2 2-5 3-8 3z m250-224l-111 0 55 57 158-57-80 0c-3 3-7 5-11 5-4 0-8-2-11-5z m201 346c0-1 1-2 1-3l-18-19-5 22z m-30 0l6-30-72-76-85 88 18 18z m-25 105l4-8 19-88-122 0 95 98c1-1 3-1 4-2z m-262 5l1 0 98-101-107 0 0 96 1 1c3 1 5 2 7 4z m-8-110l115 0 18-19-88-91-45 47z m-55 0l47 0 0-54-48 51c0 1 1 3 1 3z m0-235c0 0 0 0 0 0 0 0 0 1 0 1 0 3-1 6-2 8l49 51 0-77z m55-20l0 88 44 45 85-89-64-68z m1-87l-1 2 0 75 59-21-55-57c-1 0-2 1-3 1z m255-4l-5 0-177 64 61 64z m-121 141l-85 90 89 91 84-88z m-96 89l-39-41 0 82z m100 104l-12 12 24 0z m96-100l68 72 38-178-1-2 0 0z m98-114c-1-2-2-5-2-8l0-1-62-107c-1 0-2-1-3-2l-125 133 88 93z m-341-35l0-64-47 80z m0 270l-47 0 47 81z m310 0l-14 65 37-65z m34-20l60-103c-1-2-1-4-1-4 0 0 0-2 1-5l-49-84-37 174 22 24c1-1 3-1 4-2z"/>
    </symbol>
  
    <symbol id="icon-diamond" viewBox="0 0 512 512">
      <path d="m24 219l178 190-86-190z m232 221l100-221-200 0z m-139-257l58-110-74 0-83 110z m193 226l178-190-92 0z m-151-226l194 0-58-110-78 0z m236 0l99 0-83-110-74 0z m40-139l110 146c3 4 4 8 4 12-1 5-2 8-5 12l-275 292c-3 4-7 6-13 6-6 0-10-2-13-6l-275-292c-3-4-4-7-5-12 0-4 1-8 4-12l110-146c3-5 8-7 14-7l330 0c6 0 11 2 14 7z"/>
    </symbol>
  
    <symbol id="icon-angle-left" viewBox="0 0 512 512">
      <path d="m344 155c0 3-1 5-3 7l-112 112 112 113c2 1 3 4 3 6 0 3-1 5-3 7l-14 14c-2 2-5 3-7 3-2 0-5-1-7-3l-133-133c-2-2-3-4-3-7 0-2 1-4 3-6l133-133c2-2 5-3 7-3 2 0 5 1 7 3l14 14c2 2 3 4 3 6z"/>
    </symbol>
  
    <symbol id="icon-angle-down" viewBox="0 0 512 512">
      <path d="m399 210c0 3-1 5-3 7l-133 133c-2 2-5 3-7 3-2 0-5-1-7-3l-133-133c-2-2-3-4-3-7 0-2 1-4 3-6l15-15c1-1 4-2 6-2 3 0 5 1 7 2l112 113 112-113c2-1 4-2 7-2 2 0 5 1 6 2l15 15c2 2 3 4 3 6z"/>
    </symbol>
  
    <symbol id="icon-angle-right" viewBox="0 0 512 512">
      <path d="m335 274c0 3-1 5-3 7l-133 133c-2 2-5 3-7 3-2 0-5-1-7-3l-14-14c-2-2-3-4-3-7 0-2 1-5 3-6l112-113-112-112c-2-2-3-4-3-7 0-2 1-4 3-6l14-14c2-2 5-3 7-3 2 0 5 1 7 3l133 133c2 2 3 4 3 6z"/>
    </symbol>
  
    <symbol id="icon-angle-up" viewBox="0 0 512 512">
      <path d="m399 338c0 3-1 5-3 7l-15 14c-1 2-4 3-6 3-3 0-5-1-7-3l-112-112-112 112c-2 2-4 3-7 3-2 0-5-1-6-3l-15-14c-2-2-3-4-3-7 0-2 1-4 3-6l133-133c2-2 5-3 7-3 2 0 5 1 7 3l133 133c2 2 3 4 3 6z"/>
    </symbol>
  
    <symbol id="icon-logout" viewBox="0 0 512 512">
      <path d="m283 435c0 0 0-51 0-51c0 0 50 0 50 0c0 0 0 51 0 51c0 14-5 26-15 36c-10 10-22 15-36 15c0 0-205 0-205 0c-14 0-26-5-36-15c-10-10-15-22-15-36c0 0 0-358 0-358c0-15 5-27 15-37c10-9 22-14 36-14c0 0 205 0 205 0c14 0 26 5 36 14c10 10 15 22 15 37c0 0 0 77 0 77c0 0-50 0-50 0c0 0 0-77 0-77c0 0-206 0-206 0c0 0 0 358 0 358c0 0 206 0 206 0m203-167c0 0-101 101-101 101c0 0 0-62 0-62c0 0-230 0-230 0c0 0 0-77 0-77c0 0 230 0 230 0c0 0 0-61 0-61c0 0 101 99 101 99"/>
    </symbol>
  
    <symbol id="icon-sign-out" viewBox="0 0 512 512">
      <path d="m201 411c0 1 0 3 0 6 1 3 1 6 1 8-1 2-1 4-1 6-1 3-2 5-3 6-2 1-4 2-6 2l-91 0c-23 0-42-8-59-24-16-16-24-36-24-58l0-202c0-22 8-42 24-58 17-16 36-24 59-24l91 0c2 0 5 1 6 3 2 2 3 4 3 6 0 1 0 3 0 6 1 3 1 6 1 8-1 2-1 4-1 6-1 3-2 5-3 6-2 1-4 2-6 2l-91 0c-13 0-24 4-33 13-9 9-13 20-13 32l0 202c0 12 4 23 13 32 9 9 20 13 33 13l89 0 3 1 3 0 3 2 2 3z m265-155c0 5-2 9-5 13l-156 155c-3 4-7 6-12 6-5 0-10-2-13-6-4-3-6-8-6-13l0-82-128 0c-5 0-9-2-13-5-3-4-5-8-5-13l0-110c0-5 2-9 5-13 4-3 8-5 13-5l128 0 0-82c0-5 2-10 6-13 3-4 8-6 13-6 5 0 9 2 12 6l156 155c3 4 5 8 5 13z"/>
    </symbol>
  
    <symbol id="icon-sign-in" viewBox="0 0 512 512">
      <path d="m375 256c0 5-2 9-6 13l-155 155c-4 4-8 6-13 6-5 0-9-2-13-6-3-3-5-8-5-13l0-82-128 0c-5 0-9-2-13-5-4-4-5-8-5-13l0-110c0-5 1-9 5-13 4-3 8-5 13-5l128 0 0-82c0-5 2-10 5-13 4-4 8-6 13-6 5 0 9 2 13 6l155 155c4 4 6 8 6 13z m100-101l0 202c0 22-8 42-24 58-16 16-35 24-58 24l-91 0c-3 0-5-1-7-3-2-2-2-4-2-6 0-1-1-3-1-6 0-3 0-6 0-8 0-2 1-4 1-6 0-3 1-5 3-6 1-1 3-2 6-2l91 0c13 0 23-4 32-13 9-9 14-20 14-32l0-202c0-12-5-23-14-32-9-9-19-13-32-13l-89 0-3-1-4 0-2-2-2-3 0-3c0-1-1-3-1-6 0-3 0-6 0-8 0-2 1-4 1-6 0-3 1-5 3-6 1-1 3-2 6-2l91 0c23 0 42 8 58 24 16 16 24 36 24 58z"/>
    </symbol>
  
    <symbol id="icon-login" viewBox="0 0 512 512">
      <path d="m435 26c15 0 27 5 37 14c9 10 14 22 14 37c0 0 0 358 0 358c0 14-5 26-14 36c-10 10-22 15-37 15c0 0-230 0-230 0c-14 0-26-5-36-15c-9-10-14-22-14-36c0 0 0-51 0-51c0 0 50 0 50 0c0 0 0 51 0 51c0 0 230 0 230 0c0 0 0-358 0-358c0 0-230 0-230 0c0 0 0 77 0 77c0 0-50 0-50 0c0 0 0-77 0-77c0-15 5-27 14-37c10-9 22-14 36-14c0 0 230 0 230 0m-179 343c0 0 0-62 0-62c0 0-230 0-230 0c0 0 0-77 0-77c0 0 230 0 230 0c0 0 0-61 0-61c0 0 102 99 102 99c0 0-102 101-102 101"/>
    </symbol>
  
    <symbol id="icon-clock" viewBox="0 0 512 512">
      <path d="m256 115c78 0 141 63 141 141c0 78-63 141-141 141c-78 0-141-63-141-141c0-78 63-141 141-141m0-51c-106 0-192 86-192 192c0 106 86 192 192 192c106 0 192-86 192-192c0-106-86-192-192-192z m98 121l-20-20c-3-4-10-4-14 0l-64 64l-35-36c-4-3-10-3-14 0l-20 20c-2 2-3 5-3 8c0 2 1 5 3 7l62 62c2 2 4 3 7 3c0 0 0 0 0 0c3 0 6-1 7-3l91-91c4-4 4-10 0-14z"/>
    </symbol>
  
    <symbol id="icon-ic-assignment-48px" viewBox="0 0 512 512">
      <path d="m405 64l-89 0c-9-25-32-43-60-43-28 0-51 18-60 43l-89 0c-24 0-43 19-43 43l0 298c0 24 19 43 43 43l298 0c24 0 43-19 43-43l0-298c0-24-19-43-43-43z m-149 0c12 0 21 9 21 21 0 12-9 22-21 22-12 0-21-10-21-22 0-12-10-21 21-21z m43 299l-150 0 0-43 150 0z m64-86l-214 0 0-42 214 0z m0-85l-214 0 0-43 214 0z"/>
    </symbol>
  
    <symbol id="icon-ic-done-48px" viewBox="0 0 512 512">
      <path d="m192 345l-89-89-30 30 119 119 256-256-30-30z"/>
    </symbol>
  
    <symbol id="icon-check" viewBox="0 0 512 512">
      <path d="m212 435c-11 0-21-5-28-14c0 0-92-121-92-121c-6-8-8-17-6-27c1-9 5-17 13-23c7-6 16-9 26-7c10 1 18 6 24 14c0 0 60 79 60 79c0 0 152-243 152-243c5-8 13-13 22-15c9-2 18-1 27 4c8 5 13 13 15 22c3 9 1 18-4 27c0 0-179 287-179 287c-7 11-16 16-28 16c0 0-2 1-2 1"/>
    </symbol>
  
    <symbol id="icon-dot" viewBox="0 0 512 512">
      <path d="m256 200c16 0 29 5 40 16c11 11 16 24 16 40c0 15-5 28-16 39c-11 12-24 17-40 17c-16 0-29-5-40-17c-11-11-16-24-16-39c0-16 5-29 16-40c11-11 24-16 40-16"/>
    </symbol>
  
    <symbol id="icon-dot-2" viewBox="0 0 512 512">
      <path d="m166 200c16 0 29 5 40 16c11 11 17 24 17 40c0 15-6 28-17 39c-11 12-24 17-40 17c-15 0-29-5-40-16c-10-11-16-24-16-40c0-16 6-29 16-40c11-11 25-16 40-16m180 0c15 0 29 5 40 16c10 11 16 24 16 40c0 15-6 28-17 39c-11 12-24 17-39 17c-16 0-29-5-40-16c-11-11-17-24-17-40c0-16 6-29 17-40c11-11 24-16 40-16"/>
    </symbol>
  
    <symbol id="icon-dot-3" viewBox="0 0 512 512">
      <path d="m77 200c16 0 29 5 40 16c11 11 16 24 16 40c0 15-5 28-16 39c-11 12-24 17-40 17c-16 0-29-5-40-17c-11-11-17-24-17-39c0-16 6-29 17-40c11-11 24-16 40-16m179 0c16 0 29 5 40 16c11 11 16 24 16 40c0 15-5 28-17 39c-11 12-24 17-39 17c-15 0-28-5-39-17c-12-11-17-24-17-39c0-16 5-29 16-40c11-11 24-16 40-16m179 0c16 0 29 5 40 16c11 11 17 24 17 40c0 15-6 28-17 39c-11 12-24 17-40 17c-15 0-29-5-40-17c-11-11-16-24-16-39c0-16 5-29 16-40c11-11 25-16 40-16"/>
    </symbol>
  
    <symbol id="icon-cancel" viewBox="0 0 512 512">
      <path d="m367 336c6 6 9 13 9 22c0 8-3 16-9 22c-6 5-13 8-22 8c-8 0-16-3-22-8c0 0-68-78-68-78c0 0-67 78-67 78c-6 5-14 8-22 8c-9 0-16-3-22-8c-6-6-8-14-8-22c0-9 2-16 8-22c0 0 71-80 71-80c0 0-71-81-71-81c-6-6-8-13-8-22c0-8 2-16 8-22c6-5 13-8 22-8c8 0 16 3 22 8c0 0 67 78 67 78c0 0 68-78 68-78c6-5 14-8 22-8c9 0 16 3 22 8c6 6 9 14 9 22c0 9-3 16-9 22c0 0-71 81-71 81c0 0 71 80 71 80"/>
    </symbol>
  
    <symbol id="icon-ic-assignment-late-48px" viewBox="0 0 512 512">
      <path d="m405 64l-89 0c-9-25-32-43-60-43-28 0-51 18-60 43l-89 0c-24 0-43 19-43 43l0 298c0 24 19 43 43 43l298 0c24 0 43-19 43-43l0-298c0-24-19-43-43-43z m-128 320l-42 0 0-43 42 0z m0-85l-42 0 0-128 42 0z m-21-192c-12 0-21-10-21-22 0-12-10-21 21-21 31 0 21 9 21 21 0 12-9 22-21 22z"/>
    </symbol>
  
    <symbol id="icon-chart-consumption" viewBox="0 0 512 512">
      <path d="m16 404l480 0 0 23-480 0z m357-184l0 153 81 0 0-215c-25 32-52 53-81 62z m81-104l0-54-81 0 0 133c29-12 56-38 81-79z m-210 58l0-77-81 0 0 29c13 7 26 15 40 24 14 8 27 16 41 24z m-81-20l0 219 81 0 0-172c-18-10-36-20-53-31-10-5-19-11-28-16z m186 47l0-33-81 0 0 18c27 11 54 19 81 15z m-81 11l0 161 81 0 0-148c-28 3-55-3-81-13z m-206 19l-4 0 0 142 81 0 0-142z m410-112l-9-5c-3 5-6 10-9 14l0 1c-25 38-52 62-81 73l0 0c-4 1-8 2-12 3-4 2-8 2-12 3-27 4-54-4-81-15-8-3-16-7-24-11-15-9-30-17-44-26-13-8-25-15-37-22-28-15-53-23-74-11-30 15-45 68-48 172 0 0 0 0 0 1l10 0c3-97 18-151 43-164 24-13 60 8 101 33 51 31 108 66 169 51 40-10 76-42 108-96l0 0c-1-1 0-1 0-1z"/>
    </symbol>
  
    <symbol id="icon-chart-duration" viewBox="0 0 512 512">
      <path d="m16 406l480 0 0 22-480 0z m463-31c-36-4-69-7-99-10-128-13-206-22-254-56-52-39-66-109-73-218l10-1c8 124 26 179 69 210 46 34 123 42 249 55 30 3 63 6 99 10z m-463-309l23 0 0 362-23 0z"/>
    </symbol>
  
    <symbol id="icon-chart-etcurve" viewBox="0 0 512 512">
      <path d="m16 404l480 0 0 23-480 0z m49-248c0 2-3 5-6 5-2 0-5-3-5-5 0-3 3-5 5-5 3 0 6 2 6 5z m92-59c0 3-2 5-5 5-3 0-5-2-5-5 0-3 2-5 5-5 3 0 5 2 5 5z m-27 139c0 2-2 5-5 5-3 0-5-3-5-5 0-3 2-6 5-6 3 0 5 3 5 6z m32-31c0 3-2 5-5 5-3 0-5-2-5-5 0-3 2-5 5-5 3 0 5 2 5 5z m51 29c0 3-2 6-5 6-3 0-5-3-5-6 0-2 2-5 5-5 3 0 5 3 5 5z m48 13c0 3-2 5-5 5-3 0-5-2-5-5 0-3 2-5 5-5 3 0 5 2 5 5z m-7 65c0 3-3 5-6 5-2 0-5-2-5-5 0-3 3-5 5-5 3 0 6 2 6 5z m44-107c0 3-2 5-5 5-3 0-5-2-5-5 0-3 2-5 5-5 3 0 5 2 5 5z m-100-35c0 3-2 5-5 5-3 0-5-2-5-5 0-3 2-5 5-5 3 0 5 2 5 5z m226 142c0 3-3 5-6 5-2 0-5-2-5-5 0-3 3-5 5-5 3 0 6 2 6 5z m-37-40c0 3-3 6-5 6-3 0-6-3-6-6 0-2 3-5 6-5 2 0 5 3 5 5z m-15-10c0 3-2 5-5 5-3 0-5-2-5-5 0-3 2-5 5-5 3 0 5 2 5 5z m-10 40c0 3-2 5-5 5-3 0-5-2-5-5 0-3 2-5 5-5 3 0 5 2 5 5z m5-73c0 3-2 5-5 5-3 0-5-2-5-5 0-2 2-5 5-5 3 0 5 3 5 5z m-247-54c0 3-2 6-5 6-3 0-5-3-5-6 0-2 2-5 5-5 3 0 5 3 5 5z m-21-78c0 3-2 5-5 5-3 0-5-2-5-5 0-3 2-5 5-5 3 0 5 2 5 5z m-83-32l23 0 0 362-23 0z m399 242c-19 0-80-36-145-75-65-39-139-82-160-82l0-16c23 0 94 43 163 84 61 36 125 74 142 74z m-353-173l48 0 0 16-48 0z m353 158l48 0 0 15-48 0z"/>
    </symbol>
  
    <symbol id="icon-chart-compare" viewBox="0 0 512 512">
      <path d="m16 404l480 0 0 23-480 0z m0-339l23 0 0 362-23 0z m33 330l-1-10c137-9 218-54 296-98 45-25 87-48 137-62l3 9c-49 14-91 38-135 63-76 41-161 89-300 98z m0-5l-1-10c136-12 217-76 295-137 45-35 88-68 138-88l4 10c-49 19-91 52-135 87-76 59-162 126-301 138z m0 5l-1-11c136-16 217-100 295-181 45-47 87-91 137-118l5 9c-49 26-91 70-135 116-76 78-161 168-301 185z"/>
    </symbol>
  
    <symbol id="icon-chart-realtime" viewBox="0 0 512 512">
      <path d="m17 404l480 0 0 23-480 0z m0-339l22 0 0 362-22 0z m238 249c-15 0-23-30-39-103-6-27-12-54-18-74-10-32-15-33-16-33-2 0-15 9-34 136l-11-1c17-121 30-146 45-146 0 0 0 0 0 0 17 0 27 35 45 115 7 35 19 87 27 93 2-2 8-12 17-63l11 2c-9 61-17 73-27 74 0 0 0 0 0 0z m120-7c-13 0-20-24-34-73-6-20-12-41-19-57-9-22-14-22-14-22-1 0-12 3-25 86l-12-2c14-83 26-95 37-95 17-1 28 32 44 88 7 23 17 57 23 63 2-3 7-15 13-64l11 1c-6 62-14 74-23 75-1 0-1 0-1 0z m-253 20c-8 0-12-11-18-29-6-21-17-53-33-60-5-2-11-2-17 0l-5-10c10-4 19-4 27-1 21 10 31 43 39 67 2 7 4 14 7 19 3-8 7-27 15-74l12 2c-13 77-18 86-27 86 0 0 0 0 0 0z m358-71c-25 0-40-39-52-71-4-11-10-25-14-30-2 5-8 20-15 78l-12-2c10-80 17-87 26-88 11-1 16 14 26 39 10 28 25 66 43 62l2 12c-1 0-3 0-4 0z"/>
    </symbol>
  
    <symbol id="icon-cal-icon-week" viewBox="0 0 512 512">
      <path d="m455 75l-38 0 0-36c0-20-16-37-36-37l-35 0c-20 0-36 17-36 37l0 35-109 0 0-35c0-20-17-37-36-37l-36 0c-20 0-36 17-36 37l0 35-38 0c-20 0-36 17-36 36l0 363c0 19 16 36 36 36l400 0c20 0 37-17 37-36l0-363c0-19-17-35-37-35z m-110-25c0-5 4-10 9-10l21 0c5 0 9 4 9 10l0 25-38 0 0-25z m-217 0c0-5 4-10 10-10l20 0c5 0 10 4 10 10l0 25-39 0 0-25z m325 421l-395 0 0-288 396 0 0 288z m-320-214l0 34c0 2-1 4-4 4l-52 0c-2 0-4-2-4-4l0-34c0-3 2-4 4-4l52 0c3 0 4 1 4 4z m228 0l0 34c0 2-2 4-4 4l-52 0c-3 0-4-2-4-4l0-34c0-3 1-4 4-4l52 0c2 0 4 1 4 4z m-151 0l0 34c0 2-2 4-4 4l-52 0c-3 0-4-2-4-4l0-34c0-3 1-4 4-4l51 0c2 0 5 1 5 4z m75 0l0 34c0 2-1 4-4 4l-52 0c-2 0-4-2-4-4l0-34c0-3 2-4 4-4l52 0c3 0 4 1 4 4z m152 0l0 34c0 2-1 4-4 4l-52 0c-2 0-4-2-4-4l0-34c0-3 2-4 4-4l52 0c2 0 4 1 4 4z"/>
    </symbol>
  
    <symbol id="icon-cal-icon-month" viewBox="0 0 512 512">
      <path d="m456 75l-38 0 0-36c0-20-16-37-36-37l-35 0c-20 0-37 17-37 37l0 35-108 0 0-35c0-20-17-37-37-37l-35 0c-20 0-36 17-36 37l0 35-38 0c-20 0-36 17-36 36l0 363c0 19 16 36 36 36l400 0c20 0 36-17 36-36l0-363c0-19-16-35-36-35z m-110-25c0-5 4-10 9-10l21 0c4 0 9 4 9 10l0 25-38 0 0-25z m-217 0c0-5 4-10 10-10l20 0c5 0 10 4 10 10l0 25-39 0 0-25z m325 422l-396 0 0-288 397 0 0 288z m-92-268l0 34c0 2-1 4-4 4l-52 0c-2 0-4-2-4-4l0-34c0-2 2-4 4-4l52 0c2 0 4 2 4 4z m-152 0l0 34c0 2-1 4-4 4l-52 0c-2 0-4-2-4-4l0-34c0-2 2-4 4-4l52 0c3 0 4 2 4 4z m76 0l0 34c0 2-2 4-4 4l-52 0c-2 0-4-2-4-4l0-34c0-2 2-4 4-4l52 0c2 0 4 2 4 4z m152 0l0 34c0 2-2 4-4 4l-52 0c-2 0-4-2-4-4l0-34c0-2 2-4 4-4l52 0c2 0 4 2 4 4z m-303 54l0 33c0 3-2 4-4 4l-53 0c-2 0-4-1-4-4l0-33c0-3 2-4 4-4l52 0c2-1 5 1 5 4z m227 0l0 33c0 3-1 4-4 4l-52 0c-2 0-4-1-4-4l0-33c0-3 2-4 4-4l52 0c2-1 4 1 4 4z m-152 0l0 33c0 3-1 4-4 4l-52 0c-2 0-4-1-4-4l0-33c0-3 2-4 4-4l52 0c3-1 4 1 4 4z m76 0l0 33c0 3-2 4-4 4l-52 0c-2 0-4-1-4-4l0-33c0-3 2-4 4-4l52 0c2-1 4 1 4 4z m152 0l0 33c0 3-2 4-4 4l-52 0c-2 0-4-1-4-4l0-33c0-3 2-4 4-4l52 0c2-1 4 1 4 4z m-303 52l0 34c0 3-2 4-4 4l-53 0c-2 0-4-1-4-4l0-34c0-2 2-4 4-4l52 0c2 0 5 2 5 4z m227 0l0 34c0 3-1 4-4 4l-52 0c-2 0-4-1-4-4l0-34c0-2 2-4 4-4l52 0c2 0 4 2 4 4z m-152 0l0 34c0 3-1 4-4 4l-52 0c-2 0-4-1-4-4l0-34c0-2 2-4 4-4l52 0c3 0 4 2 4 4z m76 0l0 34c0 3-2 4-4 4l-52 0c-2 0-4-1-4-4l0-34c0-2 2-4 4-4l52 0c2 0 4 2 4 4z m152 0l0 34c0 3-2 4-4 4l-52 0c-2 0-4-1-4-4l0-34c0-2 2-4 4-4l52 0c2 0 4 2 4 4z m-303 54l0 34c0 2-2 4-4 4l-53 0c-2 0-4-2-4-4l0-34c0-2 2-4 4-4l52 0c2 0 5 2 5 4z m227 0l0 34c0 2-1 4-4 4l-52 0c-2 0-4-2-4-4l0-34c0-2 2-4 4-4l52 0c2 0 4 2 4 4z m-152 0l0 34c0 2-1 4-4 4l-52 0c-2 0-4-2-4-4l0-34c0-2 2-4 4-4l52 0c3 0 4 2 4 4z m76 0l0 34c0 2-2 4-4 4l-52 0c-2 0-4-2-4-4l0-34c0-2 2-4 4-4l52 0c2 0 4 2 4 4z m152 0l0 34c0 2-2 4-4 4l-52 0c-2 0-4-2-4-4l0-34c0-2 2-4 4-4l52 0c2 0 4 2 4 4z m-303 53l0 34c0 2-2 4-4 4l-53 0c-2 0-4-2-4-4l0-34c0-3 2-4 4-4l52 0c2 0 5 1 5 4z m227 0l0 34c0 2-1 4-4 4l-52 0c-2 0-4-2-4-4l0-34c0-3 2-4 4-4l52 0c2 0 4 1 4 4z m-152 0l0 34c0 2-1 4-4 4l-52 0c-2 0-4-2-4-4l0-34c0-3 2-4 4-4l52 0c3 0 4 1 4 4z m76 0l0 34c0 2-2 4-4 4l-52 0c-2 0-4-2-4-4l0-34c0-3 2-4 4-4l52 0c2 0 4 1 4 4z"/>
    </symbol>
  
    <symbol id="icon-eye" viewBox="0 0 512 512">
      <path d="m432 244l-85-86l-1 1c-24-22-55-36-90-36c-40 0-75 17-99 45l-80 79l0 0c-2 3-4 6-4 9c0 5 3 8 6 11l86 87l0-1c24 22 56 36 91 36c39 0 74-17 98-44l1 0l79-79c0-1 1-1 1-1l0 0c2-3 3-6 3-9c1-5-2-9-6-12z m-176 102c-50 0-90-40-90-90c0-50 40-90 90-90c49 0 89 40 89 90c0 50-40 90-89 90z m44-90c0 24-20 44-44 44c-24 0-44-20-44-44c0-24 20-43 44-43c24 0 44 19 44 43z"/>
    </symbol>
  
    <symbol id="icon-pin" viewBox="0 0 512 512">
      <path d="m256 0c-107 0-194 87-194 194c0 108 152 318 194 318c31 0 194-210 194-318c0-107-87-194-194-194z m-1 290c-54 0-99-44-99-99c0-54 45-99 99-99c55 0 99 45 99 99c0 55-44 99-99 99z"/>
    </symbol>
  
    <symbol id="icon-globe" viewBox="0 0 512 512">
      <path d="m256 10c68 0 126 24 174 72c48 49 72 106 72 174c0 68-24 126-72 174c-48 48-106 72-174 72c-68 0-125-24-174-72c-48-48-72-106-72-174c0-68 24-125 72-174c49-48 106-72 174-72m210 246c0-45-13-86-40-122c-27-37-61-62-103-77c-7 9-9 14-9 17c2 13 5 21 10 26c4 4 9 5 15 3c0 0 16-6 16-6c0 0 4 0 11-1c7 8 7 16 0 24c-8 8-16 18-23 29c-8 11-8 24-1 39c12 22 28 33 49 33c10 1 17 7 22 19c5 11 8 22 9 33c3 28 1 52-7 72c-8 15-5 28 7 39c29-38 44-81 44-128m-239-207c-38 5-72 19-102 43c-29 24-51 54-65 89c2 0 6 1 12 1c5 1 10 1 14 2c4 0 9 1 13 2c5 1 9 2 13 4c3 2 5 4 6 7c1 4-1 11-7 23c-7 11-10 21-10 31c0 10 7 20 20 29c13 8 19 16 19 23c0 10 2 21 4 35c3 14 4 21 4 22c0 5 7 14 19 28c12 14 21 22 27 22c3 0 5-4 5-12c1-7 0-16-1-27c-1-11-1-18-1-21c0-11 2-23 7-38c4-14 14-26 30-36c16-9 25-17 28-23c6-12 7-22 5-31c-3-10-6-17-9-22c-3-6-9-11-17-15c-9-4-16-7-21-8c-6-2-12-4-19-5c-7-1-11-2-12-2c-5-2-12-3-21-4c-9 0-15 1-18 2c-4 1-9-1-14-6c-6-5-9-10-9-15c0-3 3-8 8-13c5-6 11-12 18-19c6-7 11-12 14-16c3-4 6-8 9-10c3-3 6-6 11-9c4-3 9-6 14-10c1-2 5-5 13-9c7-5 11-8 13-12m-37 407c23 7 45 10 66 10c44 0 82-12 116-35c-9-15-29-21-61-17c-8 0-19 3-33 8c-14 6-22 8-24 9c-25 6-38 8-39 8c-4 1-8 3-13 7c-5 5-9 8-12 10"/>
    </symbol>
  
    <symbol id="icon-pencil-1" viewBox="0 0 512 512">
      <path d="m424 87c11 11 19 22 24 33c5 11 8 19 8 24c0 0 0 9 0 9c0 0-129 129-129 129c0 0-149 147-149 147c0 0-122 27-122 27c0 0 26-123 26-123c0 0 148-148 148-148c0 0 129-129 129-129c19-4 40 6 65 31m-253 328c0 0 12-13 12-13c0-15-9-31-26-48c-8-7-16-13-23-18c-8-4-14-6-18-6c0 0-7-1-7-1c0 0-12 12-12 12c0 0-9 41-9 41c10 5 17 11 24 17c8 9 14 17 18 25c0 0 41-9 41-9"/>
    </symbol>
  
    <symbol id="icon-list" viewBox="0 0 512 512">
      <path d="m454 103l-320 0c-9 0-17 8-17 18l0 16c0 9 8 17 17 17l320 0c10 0 18-8 18-17l0-16c0-10-8-18-18-18z m0 128l-320 0c-9 0-17 7-17 17l0 16c0 10 8 17 17 17l320 0c10 0 18-7 18-17l0-16c0-10-8-17-18-17z m0 127l-320 0c-9 0-17 8-17 17l0 16c0 10 8 18 17 18l320 0c10 0 18-8 18-18l0-16c0-9-8-17-18-17z m-363-229c0 14-11 25-25 25c-14 0-26-11-26-25c0-15 12-26 26-26c14 0 25 11 25 26z m0 122c0 14-11 25-25 25c-14 0-26-11-26-25c0-14 12-26 26-26c14 0 25 12 25 26z m0 132c0 15-11 26-25 26c-14 0-26-11-26-26c0-14 12-25 26-25c14 0 25 11 25 25z"/>
    </symbol>
  
    <symbol id="icon-strong-list" viewBox="0 0 512 512">
      <path d="m90 155l0 0c0 6 5 12 11 12l0 0l310 0l0 0c6 0 11-6 11-12l0 0l0-54c0-6-5-11-11-11l-310 0c-6 0-11 5-11 11c0 1 0 1 0 1z m321 63l-310 0c-6 0-11 5-11 11c0 0 0 1 0 1l0 53l0 0c0 6 5 11 11 11l0 0l310 0l0 0c6 0 11-5 11-11l0 0l0-54c0-6-5-11-11-11z m0 127l-310 0c-6 0-11 6-11 12c0 0 0 0 0 1l0 53l0 0c0 6 5 11 11 11l0 0l310 0l0 0c6 0 11-5 11-11l0 0l0-54c0-6-5-12-11-12z"/>
    </symbol>
  
</svg>
